<svg width="300" height="120" viewBox="0 0 300 120" fill="none" xmlns="http://www.w3.org/2000/svg">
<g clip-path="url(#clip0_293_4401)">
<path d="M47.2848 92.0012L85.5856 79.9618L81.3246 74.1848L47.2848 84.8973L13.245 74.1848L9 79.9618L47.2848 92.0012Z" fill="#C6C6C6"/>
<path d="M47.2848 77.7765L77.0797 68.4071L72.8187 62.5815L47.2848 70.6726L21.7669 62.5815L17.522 68.4071L47.2848 77.7765Z" fill="#C6C6C6"/>
<path d="M47.285 63.5525L68.5579 56.8693L64.3129 51.0923L47.285 56.4485L30.3372 51.0923L26.0762 56.8693L47.285 63.5525Z" fill="#C6C6C6"/>
<path d="M47.2844 49.3282L60.0994 45.315L55.8544 39.5381L47.3325 42.2243L38.8265 39.5381L34.5815 45.315L47.2844 49.3282Z" fill="#C6C6C6"/>
<path d="M47.285 35.0712L51.546 33.7443L47.285 27.9673L43.04 33.7443L47.285 35.0712Z" fill="#C6C6C6"/>
<path d="M119.754 48.9233H100.964V55.0563H107.723C115.124 55.0563 121.74 58.0985 121.692 66.2867C121.692 74.232 115.076 78.0186 108.076 78.0186C100.403 78.0186 93.8352 75.2677 93.7871 67.0958H100.307C100.307 70.9309 104.68 71.9504 107.964 71.9504C111.248 71.9504 115.188 70.4454 115.188 66.3028C115.188 62.1602 111.296 61.2217 107.723 61.2217H94.54V42.7256H119.754V48.9233Z" fill="#C6C6C6"/>
<path d="M149.709 51.1066C148.732 49.8466 147.474 48.8379 146.037 48.1629C144.6 47.4879 143.026 47.1658 141.443 47.2229C136.637 47.2229 134.234 49.2619 134.234 51.8672C134.234 54.9094 137.823 55.7508 141.988 56.2525C149.26 57.1587 156.02 59.052 156.02 67.3857C156.02 75.1693 149.148 78.519 141.395 78.519C134.283 78.519 128.82 76.3182 126.225 69.9263L131.704 67.0945C133.305 70.9296 137.262 72.6287 141.491 72.6287C145.72 72.6287 149.5 71.1885 149.5 67.3857C149.5 64.1493 146.072 62.7415 141.491 62.2399C134.379 61.3984 127.811 59.5051 127.811 51.6568C127.811 44.472 134.875 41.5268 141.299 41.4783C146.713 41.4783 152.336 43.0965 154.979 48.4204L149.709 51.1066Z" fill="#C6C6C6"/>
<path d="M170.741 48.6638H159.704V42.6765H188.346V48.6638H177.309V77.6136H170.741V48.6638Z" fill="#C6C6C6"/>
<path d="M194.32 71.1245H212.197C212.414 71.1355 212.631 71.1018 212.835 71.0254C213.039 70.949 213.225 70.8316 213.382 70.6802C213.539 70.5288 213.665 70.3467 213.75 70.1449C213.836 69.9431 213.879 69.7258 213.879 69.5063V63.3086H194.481V57.1756H213.879V50.7675C213.891 50.5413 213.855 50.3152 213.775 50.1038C213.694 49.8924 213.571 49.7004 213.412 49.5403C213.254 49.3801 213.064 49.2553 212.854 49.174C212.645 49.0927 212.421 49.0568 212.197 49.0684H194.32V42.6765H214.456C216.029 42.6808 217.537 43.3152 218.648 44.4406C219.759 45.566 220.383 47.0906 220.383 48.68V71.6262C220.383 73.2141 219.758 74.737 218.647 75.8599C217.535 76.9827 216.028 77.6136 214.456 77.6136H194.32V71.1245Z" fill="#C6C6C6"/>
<path d="M234.96 67.3379V77.6136H228.393V42.6765H244.812C261.92 42.6765 261.968 67.2408 244.812 67.3865L234.96 67.3379ZM234.96 61.302H244.812C245.643 61.345 246.474 61.2167 247.254 60.925C248.034 60.6334 248.748 60.1844 249.351 59.6054C249.954 59.0264 250.435 58.3295 250.763 57.5571C251.091 56.7847 251.26 55.953 251.26 55.1124C251.26 54.2719 251.091 53.4401 250.763 52.6677C250.435 51.8953 249.954 51.1984 249.351 50.6194C248.748 50.0404 248.034 49.5914 247.254 49.2998C246.474 49.0081 245.643 48.8798 244.812 48.9228H234.96V61.302Z" fill="#C6C6C6"/>
<path d="M284.763 51.1093C283.786 49.8493 282.528 48.8406 281.092 48.1656C279.655 47.4906 278.081 47.1685 276.498 47.2256C271.692 47.2256 269.289 49.2645 269.289 51.8699C269.289 54.9121 272.877 55.7535 277.042 56.2552C284.315 57.1614 291.075 59.0547 291.075 67.3884C291.075 75.172 284.219 78.5217 276.45 78.5217C269.337 78.5217 263.875 76.3209 261.28 69.929L266.758 67.0972C268.36 70.9323 272.317 72.6314 276.546 72.6314C280.775 72.6314 284.555 71.1912 284.555 67.3884C284.555 64.152 281.127 62.7442 276.546 62.2426C269.433 61.4011 262.866 59.5078 262.866 51.6595C262.866 44.4746 269.93 41.5295 276.353 41.481C281.768 41.481 287.39 43.0992 290.033 48.4231L284.763 51.1093Z" fill="#C6C6C6"/>
</g>
<defs>
<clipPath id="clip0_293_4401">
<rect width="282.074" height="64" fill="white" transform="translate(9 28)"/>
</clipPath>
</defs>
</svg>
