<svg width="300" height="120" viewBox="0 0 300 120" fill="none" xmlns="http://www.w3.org/2000/svg">
<g clip-path="url(#clip0_293_4357)">
<path d="M43.6656 90.6772C44.4617 90.6772 45.1694 90.8575 45.7886 91.2211C46.4048 91.5846 46.8855 92.0984 47.2246 92.7623C47.5636 93.4263 47.7317 94.1895 47.7317 95.0487V95.5114C47.7317 96.3827 47.5607 97.1489 47.2216 97.8099C46.8825 98.4708 46.396 98.9816 45.765 99.3391C45.134 99.6967 44.4116 99.8769 43.5977 99.8769H41V90.6802H43.6656V90.6772ZM42.5687 91.9662V98.597H43.5918C44.4145 98.597 45.0455 98.3356 45.4849 97.8099C45.9242 97.2871 46.1483 96.533 46.1571 95.5505V95.0397C46.1571 94.0422 45.9448 93.2791 45.5173 92.7533C45.0927 92.2275 44.4735 91.9632 43.6626 91.9632H42.5657L42.5687 91.9662Z" fill="#C6C6C6"/>
<path d="M60.4839 90.6772V91.9662H56.1937V94.5049H59.9001V95.7668H56.1937V98.597H60.5252V99.8739H54.625V90.6772H60.4839V90.6772Z" fill="#C6C6C6"/>
<path d="M70.2303 90.6771C71.2505 90.6771 72.029 90.8844 72.5597 91.302C73.0934 91.7196 73.3588 92.3416 73.3588 93.1648C73.3588 93.5854 73.2468 93.964 73.0227 94.3005C72.7986 94.637 72.4742 94.8984 72.0437 95.0846C72.5302 95.2198 72.9077 95.4722 73.176 95.8448C73.4443 96.2173 73.577 96.665 73.577 97.1878C73.577 98.05 73.3057 98.714 72.7632 99.1767C72.2206 99.6394 71.4422 99.8708 70.4279 99.8708H67.1372V90.6741H70.2303V90.6771ZM68.7059 94.5498H70.2421C70.7286 94.5498 71.112 94.4387 71.3862 94.2133C71.6604 93.988 71.799 93.6695 71.799 93.2549C71.799 92.8012 71.6722 92.4707 71.4186 92.2694C71.165 92.0681 70.7699 91.966 70.2303 91.966H68.7059V94.5498V94.5498ZM68.7059 98.5999H70.4485C70.9409 98.5999 71.3243 98.4767 71.6014 98.2273C71.8786 97.9779 72.0172 97.6324 72.0172 97.1908C72.0172 96.2353 71.5366 95.7456 70.5783 95.7246H68.7059V98.5969V98.5999Z" fill="#C6C6C6"/>
<path d="M79.8398 91.9662V90.6772H86.9991V91.9662H84.1861V99.8739H82.6292V91.9662H79.8398V91.9662Z" fill="#C6C6C6"/>
<path d="M102.045 97.0947H103.614C103.614 97.6175 103.782 98.0201 104.121 98.3085C104.46 98.5969 104.946 98.7381 105.577 98.7381C106.123 98.7381 106.533 98.624 106.807 98.4016C107.081 98.1763 107.22 97.8789 107.22 97.5093C107.22 97.1067 107.081 96.7942 106.801 96.5749C106.521 96.3556 106.02 96.1363 105.291 95.9109C104.563 95.6886 103.985 95.4392 103.555 95.1658C102.732 94.64 102.322 93.952 102.322 93.1078C102.322 92.3657 102.62 91.7557 103.213 91.275C103.805 90.7943 104.575 90.554 105.521 90.554C106.149 90.554 106.71 90.6711 107.202 90.9085C107.695 91.1458 108.081 91.4793 108.361 91.915C108.641 92.3506 108.783 92.8343 108.783 93.3631H107.22C107.22 92.8824 107.072 92.5069 106.777 92.2365C106.483 91.9661 106.058 91.8279 105.51 91.8279C104.997 91.8279 104.598 91.939 104.315 92.1613C104.032 92.3837 103.891 92.6961 103.891 93.0957C103.891 93.4322 104.044 93.7147 104.351 93.94C104.657 94.1653 105.162 94.3847 105.863 94.598C106.565 94.8113 107.131 95.0516 107.556 95.3251C107.981 95.5955 108.293 95.9079 108.491 96.2594C108.688 96.611 108.788 97.0226 108.788 97.4943C108.788 98.2604 108.499 98.8703 107.925 99.324C107.347 99.7777 106.565 100.003 105.577 100.003C104.926 100.003 104.324 99.8798 103.776 99.6335C103.227 99.3871 102.803 99.0476 102.499 98.6149C102.195 98.1823 102.042 97.6745 102.042 97.0977L102.045 97.0947Z" fill="#C6C6C6"/>
<path d="M117.151 99.8739H115.588V90.6772H117.151V99.8739Z" fill="#C6C6C6"/>
<path d="M126.446 90.6772L129.049 97.7257L131.647 90.6772H133.673V99.8739H132.11V96.8424L132.266 92.7864L129.601 99.8739H128.477L125.818 92.7924L125.974 96.8424V99.8739H124.411V90.6772H126.446V90.6772Z" fill="#C6C6C6"/>
<path d="M140.858 90.6771H144.311C145.32 90.6771 146.119 90.9445 146.714 91.4793C147.307 92.0141 147.605 92.7201 147.605 93.6004C147.605 94.4807 147.316 95.2018 146.735 95.7036C146.154 96.2053 145.34 96.4547 144.297 96.4547H142.43V99.8708H140.861V90.6741L140.858 90.6771ZM144.311 95.1748C144.869 95.1748 145.293 95.0396 145.588 94.7752C145.88 94.5078 146.027 94.1202 146.027 93.6154C146.027 93.1107 145.88 92.7231 145.582 92.4257C145.284 92.1282 144.874 91.975 144.355 91.969H142.427V95.1778H144.311V95.1748Z" fill="#C6C6C6"/>
<path d="M155.872 98.6H159.97V99.8769H154.306V90.6802H155.875V98.6H155.872Z" fill="#C6C6C6"/>
<path d="M168.159 99.8739H166.596V90.6772H168.159V99.8739Z" fill="#C6C6C6"/>
<path d="M175.419 99.8739V90.6772H181.154V91.9662H176.988V94.7002H180.62V95.9771H176.988V99.8739H175.419Z" fill="#C6C6C6"/>
<path d="M189.381 99.8739H187.818V90.6772H189.381V99.8739Z" fill="#C6C6C6"/>
<path d="M202.499 90.6772V91.9662H198.208V94.5049H201.915V95.7668H198.208V98.597H202.543V99.8739H196.643V90.6772H202.501H202.499Z" fill="#C6C6C6"/>
<path d="M211.817 90.6772C212.614 90.6772 213.321 90.8575 213.94 91.2211C214.557 91.5846 215.037 92.0984 215.376 92.7623C215.715 93.4263 215.884 94.1895 215.884 95.0487V95.5114C215.884 96.3827 215.713 97.1489 215.373 97.8099C215.034 98.4708 214.548 98.9816 213.917 99.3391C213.286 99.6967 212.563 99.8769 211.75 99.8769H209.152V90.6802H211.817V90.6772ZM210.721 91.9662V98.597H211.744C212.566 98.597 213.197 98.3356 213.637 97.8099C214.076 97.2871 214.3 96.533 214.309 95.5505V95.0397C214.309 94.0422 214.097 93.2791 213.669 92.7533C213.242 92.2275 212.625 91.9632 211.814 91.9632H210.718L210.721 91.9662Z" fill="#C6C6C6"/>
<path d="M208.188 65.5718H207.359C206.696 71.4035 203.32 74.3208 197.231 74.3208C193.86 74.3208 191.307 73.4045 189.576 71.5657C187.842 69.73 186.978 67.071 186.978 63.5859V29.6113H178.129V63.5168C178.129 69.1682 179.848 73.5877 183.289 76.7725C186.731 79.9572 191.378 81.5496 197.228 81.5496C201.515 81.5496 205.165 80.6603 208.185 78.8816V65.5748L208.188 65.5718Z" fill="#C6C6C6"/>
<path d="M219.52 33.2737L216.509 29.5001V53.0492C216.5 56.1918 216.494 59.3315 216.485 62.4742C216.515 63.8893 216.424 65.692 215.987 67.732C215.654 69.2793 215.2 70.6043 214.752 71.6799C214.761 56.8949 214.769 42.1099 214.778 27.3249L212.971 25.0445C212.977 41.5811 212.985 58.1207 212.991 74.6573C212.764 74.9848 212.487 75.3423 212.154 75.7119C211.794 76.1085 211.44 76.433 211.119 76.7004C211.154 59.3195 211.193 41.9386 211.228 24.5578L209.288 27.0034C209.314 44.0448 209.341 61.0831 209.367 78.1245C208.987 78.3919 208.565 78.6653 208.103 78.9357C207.551 79.2572 207.023 79.5215 206.531 79.7409C206.251 76.6913 205.971 73.6418 205.691 70.5923C206.69 68.8617 207.079 67.3655 207.25 66.38C207.442 65.2924 207.469 64.2288 207.501 63.051C207.53 62.0085 207.51 61.1402 207.486 60.5303C207.507 50.0838 207.525 39.6342 207.545 29.1877L207.492 29.2628V29.2718L204.302 33.2737L207.545 27.6344L208.613 25.7956L208.678 25.6935L211.948 20L212.101 20.2824L212.974 21.7847L214.781 24.9604L216.515 28.0009L219.526 33.2737H219.52Z" fill="#C6C6C6"/>
<path d="M211.945 20L204.299 33.2737C204.299 33.2737 210.88 22.1963 219.52 33.2737L211.945 20Z" fill="#C6C6C6"/>
<path d="M254.304 47.5542C251.671 44.0359 248.035 42.2783 243.403 42.2783C239.095 42.2783 235.689 43.8286 233.186 46.9292L232.835 42.9934H224.971V99.874H233.504V78.2328C236.007 81.024 239.345 82.418 243.512 82.418C248.005 82.418 251.588 80.6364 254.256 77.0701C256.925 73.5038 258.258 68.7297 258.258 62.7418V62.204C258.258 55.9547 256.94 51.0724 254.307 47.5542H254.304ZM247.457 72.1337C245.924 74.3631 243.801 75.4777 241.085 75.4777C237.573 75.4777 235.046 73.9755 233.501 70.971V53.7975C235.023 50.8651 237.526 49.3959 241.014 49.3959C243.824 49.3959 245.983 50.5286 247.492 52.794C249.002 55.0593 249.757 58.1239 249.757 61.9876C249.757 66.5184 248.99 69.9014 247.457 72.1307V72.1337Z" fill="#C6C6C6"/>
<path d="M41.085 81.7026V29.6111H73.5641V36.9089H49.9662V52.4H70.5447V59.6257H49.9662V81.6996H41.085V81.7026Z" fill="#C6C6C6"/>
<path d="M88.8375 42.9929H80.3042V81.7055H88.8375V42.9929Z" fill="#C6C6C6"/>
<path d="M98.003 42.9931H106.044L106.289 47.4668C109.099 44.0086 112.784 42.2781 117.349 42.2781C125.26 42.2781 129.288 46.8929 129.426 56.1227V81.7027H120.893V56.6244C120.893 54.1668 120.371 52.3491 119.33 51.1683C118.29 49.9875 116.585 49.3987 114.22 49.3987C110.779 49.3987 108.217 50.985 106.53 54.1578V81.7057H97.9971V42.9931H98.003Z" fill="#C6C6C6"/>
<path d="M137.994 42.9931H146.035L146.28 47.4668C149.09 44.0086 152.776 42.2781 157.34 42.2781C165.251 42.2781 169.279 46.8929 169.418 56.1227V81.7027H160.884V56.6244C160.884 54.1668 160.362 52.3491 159.322 51.1683C158.281 49.9875 156.576 49.3987 154.212 49.3987C150.771 49.3987 148.208 50.985 146.522 54.1578V81.7057H137.988V42.9931H137.994Z" fill="#C6C6C6"/>
<path d="M78.5293 39.0481C78.7817 39.0481 78.9863 38.8396 78.9863 38.5824C78.9863 38.3252 78.7817 38.1167 78.5293 38.1167C78.2769 38.1167 78.0723 38.3252 78.0723 38.5824C78.0723 38.8396 78.2769 39.0481 78.5293 39.0481Z" fill="#C6C6C6"/>
<path d="M90.604 39.0481C90.8564 39.0481 91.061 38.8396 91.061 38.5824C91.061 38.3252 90.8564 38.1167 90.604 38.1167C90.3516 38.1167 90.147 38.3252 90.147 38.5824C90.147 38.8396 90.3516 39.0481 90.604 39.0481Z" fill="#C6C6C6"/>
<path d="M88.8203 34.4995C88.2217 34.854 84.7836 36.6687 80.3282 34.4905L77.4976 39.4869C79.8565 38.5675 82.2154 37.6452 84.5713 36.7258C86.9302 37.6452 89.2891 38.5675 91.6451 39.4869C90.7045 37.8254 89.7609 36.164 88.8203 34.4995Z" fill="#C6C6C6"/>
<path d="M84.9806 34.4814C86.4814 34.4093 87.6314 33.9255 88.286 33.586C88.2919 33.586 88.2978 33.586 88.3037 33.589C87.0594 31.3928 85.815 29.1965 84.5707 27.0002L80.8584 33.55C81.6191 33.9526 83.0846 34.5715 84.9806 34.4814V34.4814Z" fill="#C6C6C6"/>
</g>
<defs>
<clipPath id="clip0_293_4357">
<rect width="217.255" height="80" fill="white" transform="translate(41 20)"/>
</clipPath>
</defs>
</svg>
