<svg width="300" height="120" viewBox="0 0 300 120" fill="none" xmlns="http://www.w3.org/2000/svg">
<g clip-path="url(#clip0_293_4392)">
<path d="M86.63 27.28C86.31 27.44 85.7767 27.6267 85.03 27.84C84.2833 28.0533 83.4833 28.24 82.63 28.4C81.7767 28.56 80.95 28.6667 80.15 28.72C79.35 28.7733 78.7367 28.72 78.31 28.56C77.8833 28.4 77.7233 28.1067 77.83 27.68C77.99 27.2533 78.55 26.64 79.51 25.84C81.6967 24.3467 83.8033 22.96 85.83 21.68C87.91 20.4 90.07 19.3867 92.31 18.64C93.27 18.32 94.1767 18.3467 95.03 18.72C95.8833 19.0933 96.6033 19.68 97.19 20.48C97.83 21.2267 98.31 22.1333 98.63 23.2C98.95 24.2133 99.03 25.2 98.87 26.16C98.8167 26.3733 98.71 26.56 98.55 26.72C98.4433 26.8267 98.3367 26.9867 98.23 27.2C96.5233 30.1867 94.6833 33.4667 92.71 37.04C90.7367 40.6133 88.79 44.3467 86.87 48.24C84.95 52.08 83.11 55.9733 81.35 59.92C79.6433 63.8667 78.2033 67.7067 77.03 71.44L76.79 72.72C79.8833 72.1333 83.2433 71.52 86.87 70.88C90.4967 70.24 94.1233 69.84 97.75 69.68C101.43 69.52 104.95 69.76 108.31 70.4C111.723 70.9867 114.737 72.24 117.35 74.16C117.563 74.32 117.777 74.56 117.99 74.88C118.203 75.1467 118.363 75.4667 118.47 75.84C118.577 76.16 118.577 76.4533 118.47 76.72C118.417 76.9867 118.203 77.1467 117.83 77.2C113.563 76.3467 109.243 75.8933 104.87 75.84C100.55 75.7333 96.23 75.8933 91.91 76.32C87.59 76.8 83.3233 77.52 79.11 78.48C74.95 79.44 70.95 80.5333 67.11 81.76C66.63 81.92 66.07 82.0267 65.43 82.08C64.8433 82.1333 64.2567 82.08 63.67 81.92C63.0833 81.8133 62.55 81.6 62.07 81.28C61.59 80.96 61.27 80.5333 61.11 80C60.8433 79.2533 60.8967 78.5067 61.27 77.76C61.6433 77.0667 62.2033 76.5867 62.95 76.32C64.1233 75.8933 65.2967 75.4933 66.47 75.12C67.6433 74.7467 68.79 74.4 69.91 74.08C70.4967 73.92 70.8167 73.5733 70.87 73.04C71.6167 68.56 72.79 64.0267 74.39 59.44C76.0433 54.8533 77.83 50.4533 79.75 46.24C81.7233 41.9733 83.6967 38.0267 85.67 34.4C87.6433 30.7733 89.4033 27.7067 90.95 25.2C90.2033 25.52 89.4833 25.8667 88.79 26.24C88.0967 26.6133 87.3767 26.96 86.63 27.28ZM139.908 59.12L140.868 58.16H140.948V58.32C141.055 59.5467 140.948 60.48 140.628 61.12C140.308 61.7067 140.148 62.0267 140.148 62.08C139.615 62.88 138.895 63.92 137.988 65.2C137.081 66.4267 136.121 67.7067 135.108 69.04C134.148 70.32 133.215 71.52 132.308 72.64C131.401 73.7067 130.681 74.48 130.148 74.96C129.508 75.7067 128.815 76.4 128.068 77.04C127.801 77.2533 127.428 77.44 126.948 77.6C126.521 77.76 126.068 77.8667 125.588 77.92C125.108 78.0267 124.628 78.0533 124.148 78C123.721 77.9467 123.375 77.8133 123.108 77.6C122.201 77.0133 121.508 76.32 121.028 75.52C120.495 74.6667 120.228 73.76 120.228 72.8C120.068 69.8667 120.335 66.88 121.028 63.84C121.668 60.7467 122.441 57.9467 123.348 55.44C123.615 54.6933 123.988 53.92 124.468 53.12C124.948 52.64 125.508 52.5067 126.148 52.72C126.788 52.9333 127.348 53.3867 127.828 54.08C128.361 54.72 128.735 55.52 128.948 56.48C129.215 57.44 129.188 58.4 128.868 59.36C128.601 60.2667 128.361 61.1467 128.148 62C127.935 62.8 127.695 63.6533 127.428 64.56C127.321 64.9867 127.135 65.6 126.868 66.4C126.655 67.2 126.415 68.0533 126.148 68.96C125.881 69.8133 125.641 70.64 125.428 71.44C125.215 72.24 125.081 72.8533 125.028 73.28C124.921 74.08 125.135 74.2933 125.668 73.92C126.201 73.5467 126.921 72.9067 127.828 72C130.015 69.76 132.095 67.6 134.068 65.52C136.041 63.3867 137.988 61.2533 139.908 59.12ZM128.708 49.52C128.335 49.8933 128.068 49.8933 127.908 49.52C127.215 48.4533 126.761 47.3333 126.548 46.16C126.335 44.9867 126.441 43.8133 126.868 42.64C127.081 41.9467 127.535 41.3867 128.228 40.96C128.975 40.48 129.641 40.32 130.228 40.48C130.548 40.5867 130.895 40.7733 131.268 41.04C131.641 41.2533 131.881 41.52 131.988 41.84C132.361 43.28 132.148 44.6667 131.348 46C130.601 47.3333 129.721 48.5067 128.708 49.52ZM144.456 69.36C144.936 69.7333 145.416 69.6533 145.896 69.12C146.376 68.5333 146.856 67.68 147.336 66.56C147.869 65.3867 148.376 64.0267 148.856 62.48C149.336 60.88 149.842 59.3067 150.376 57.76C150.962 56.16 151.549 54.64 152.136 53.2C152.776 51.7067 153.469 50.48 154.216 49.52C154.482 49.04 154.909 48.64 155.496 48.32C156.136 48 156.696 47.9467 157.176 48.16C157.602 48.2667 157.949 48.5333 158.216 48.96C158.482 49.3867 158.562 49.84 158.456 50.32C158.456 50.64 158.456 50.9867 158.456 51.36C158.456 51.68 158.509 52.0533 158.616 52.48C158.936 53.7067 159.549 54.64 160.456 55.28C161.362 55.92 162.376 56.3733 163.496 56.64C164.669 56.9067 165.842 57.0133 167.016 56.96C168.242 56.8533 169.336 56.6667 170.296 56.4C170.456 56.4 170.642 56.3733 170.856 56.32C171.122 56.2667 171.336 56.2667 171.496 56.32C171.709 56.32 171.842 56.3733 171.896 56.48C171.949 56.5867 171.842 56.7733 171.576 57.04C170.562 58.1067 169.416 58.88 168.136 59.36C166.909 59.7867 165.656 59.9733 164.376 59.92C163.096 59.8133 161.842 59.4667 160.616 58.88C159.389 58.2933 158.296 57.52 157.336 56.56C156.856 57.5733 156.216 58.9867 155.416 60.8C154.616 62.56 153.709 64.3733 152.696 66.24C151.736 68.1067 150.696 69.8133 149.576 71.36C148.456 72.8533 147.309 73.8133 146.136 74.24C144.696 74.72 143.496 74.6933 142.536 74.16C141.576 73.5733 140.802 72.7467 140.216 71.68C139.629 70.6133 139.229 69.4133 139.016 68.08C138.749 66.7467 138.616 65.6 138.616 64.64V60.96C138.616 60.16 138.642 59.4133 138.696 58.72C138.749 57.9733 138.829 57.2 138.936 56.4C138.936 55.8133 138.962 55.2267 139.016 54.64C139.069 54.0533 139.149 53.44 139.256 52.8C139.256 52.5333 139.309 52.3467 139.416 52.24C139.576 52.08 139.762 52.0533 139.976 52.16C141.522 52.4267 142.669 53.12 143.416 54.24C144.162 55.36 144.536 56.6133 144.536 58C144.536 58.8 144.482 59.7067 144.376 60.72C144.269 61.7333 144.162 62.7733 144.056 63.84C144.002 64.9067 143.976 65.92 143.976 66.88C143.976 67.7867 144.082 68.56 144.296 69.2C144.296 69.3067 144.322 69.36 144.376 69.36H144.456ZM166.231 68.88C166.124 66.8533 166.337 64.7467 166.871 62.56C167.404 60.3733 168.204 58.3733 169.271 56.56C170.337 54.6933 171.671 53.1733 173.271 52C174.924 50.8267 176.844 50.2133 179.031 50.16C180.151 50.4267 181.004 50.9867 181.591 51.84C182.231 52.6933 182.417 53.7333 182.151 54.96C181.937 56.1333 181.617 57.1467 181.191 58C180.817 58.8 180.151 59.6533 179.191 60.56C178.711 60.9867 178.044 61.5467 177.191 62.24C176.337 62.9333 175.511 63.6533 174.711 64.4C173.911 65.1467 173.217 65.92 172.631 66.72C172.044 67.4667 171.751 68.1067 171.751 68.64C171.591 70.0267 171.804 70.9333 172.391 71.36C172.977 71.7333 173.724 71.8933 174.631 71.84C175.591 71.7333 176.551 71.4667 177.511 71.04C178.471 70.6133 179.244 70.24 179.831 69.92C180.524 69.44 181.297 68.8533 182.151 68.16C183.004 67.4133 183.857 66.64 184.711 65.84C185.564 65.04 186.391 64.2667 187.191 63.52C187.991 62.7733 188.657 62.16 189.191 61.68C189.617 61.2533 189.991 60.8533 190.311 60.48C190.684 60.1067 191.111 59.7867 191.591 59.52C192.017 59.4133 192.337 59.3867 192.551 59.44C192.817 59.4933 192.791 59.8933 192.471 60.64C192.044 61.5467 191.511 62.4 190.871 63.2C190.284 64 189.644 64.8 188.951 65.6C187.991 66.6667 186.951 67.7867 185.831 68.96C184.764 70.1333 183.617 71.2267 182.391 72.24C181.217 73.2 179.964 74.0533 178.631 74.8C177.351 75.4933 176.017 75.9467 174.631 76.16C172.177 76.32 170.151 75.8133 168.551 74.64C167.004 73.4667 166.231 71.5467 166.231 68.88ZM179.031 53.84C177.591 54.3733 176.444 55.0667 175.591 55.92C174.791 56.7733 174.204 58.0267 173.831 59.68C175.004 58.8267 176.044 57.9733 176.951 57.12C177.911 56.2133 178.604 55.12 179.031 53.84ZM193.001 77.92C193.267 78.4533 193.614 78.72 194.041 78.72C194.521 78.7733 194.974 78.6667 195.401 78.4C197.001 77.0133 198.521 75.52 199.961 73.92C201.401 72.32 202.761 70.72 204.041 69.12C205.374 67.52 206.654 65.9733 207.881 64.48C209.161 62.9333 210.387 61.5467 211.561 60.32C211.987 59.8933 212.307 59.8133 212.521 60.08C212.787 60.2933 212.841 60.64 212.681 61.12C211.934 62.3467 211.187 63.5467 210.441 64.72C209.694 65.84 208.921 66.9867 208.121 68.16C206.467 70.5067 204.761 73.0133 203.001 75.68C201.294 78.3467 199.401 80.6133 197.321 82.48C196.041 83.6533 194.654 84.32 193.161 84.48C191.774 84.4267 190.467 83.9733 189.241 83.12C188.014 82.32 187.294 81.2267 187.081 79.84C186.761 76.5867 186.814 73.3067 187.241 70C187.721 66.16 188.494 62.1867 189.561 58.08C190.627 53.9733 191.907 49.8933 193.401 45.84C194.947 41.7867 196.627 37.84 198.441 34C200.254 30.16 202.147 26.5867 204.121 23.28C205.027 21.84 205.934 20.48 206.841 19.2C207.747 17.8667 208.707 16.64 209.721 15.52C210.094 15.04 210.547 14.6933 211.081 14.48C211.667 14.2667 212.254 14.2933 212.841 14.56C214.014 15.0933 214.521 16.08 214.361 17.52C213.987 20.6667 213.321 23.7333 212.361 26.72C211.454 29.7067 210.334 32.5867 209.001 35.36C207.667 38.1333 206.174 40.8 204.521 43.36C202.867 45.92 201.107 48.3467 199.241 50.64C199.081 50.8 198.947 50.9867 198.841 51.2C198.787 51.4133 198.707 51.6267 198.601 51.84C197.801 53.9733 197.001 56.32 196.201 58.88C195.454 61.44 194.787 63.9467 194.201 66.4C193.667 68.8 193.267 71.04 193.001 73.12C192.787 75.2 192.787 76.8 193.001 77.92ZM212.681 21.28C210.387 25.12 208.334 29.0667 206.521 33.12C204.707 37.1733 202.894 41.2267 201.081 45.28C201.561 44.8 202.147 44 202.841 42.88C203.587 41.7067 204.361 40.4 205.161 38.96C205.961 37.4667 206.761 35.8667 207.561 34.16C208.361 32.4533 209.107 30.8 209.801 29.2C210.494 27.6 211.107 26.1067 211.641 24.72C212.174 23.28 212.521 22.1333 212.681 21.28ZM216.02 73.84C214.633 74.1067 213.327 73.8933 212.1 73.2C210.927 72.5067 210.207 71.4667 209.94 70.08C209.727 68.9067 209.62 67.5733 209.62 66.08C209.62 64.5867 209.7 63.0933 209.86 61.6C210.02 60.0533 210.233 58.56 210.5 57.12C210.82 55.68 211.14 54.4 211.46 53.28C211.727 52.8 212.127 52.56 212.66 52.56C213.247 52.56 213.833 52.6933 214.42 52.96C215.06 53.1733 215.593 53.4667 216.02 53.84C216.5 54.2133 216.793 54.5867 216.9 54.96C217.06 55.6533 216.9 56.7733 216.42 58.32C215.993 59.8133 215.513 61.3867 214.98 63.04C214.447 64.6933 214.02 66.24 213.7 67.68C213.38 69.0667 213.433 69.9467 213.86 70.32C214.233 70.6933 214.713 70.6133 215.3 70.08C215.94 69.4933 216.607 68.6667 217.3 67.6C217.993 66.48 218.713 65.2 219.46 63.76C220.207 62.2667 220.927 60.8 221.62 59.36C222.367 57.92 223.033 56.5867 223.62 55.36C224.207 54.1333 224.687 53.2 225.06 52.56C225.167 52.3467 225.407 52.2667 225.78 52.32C226.207 52.32 226.633 52.4267 227.06 52.64C227.487 52.8533 227.887 53.1467 228.26 53.52C228.633 53.84 228.873 54.2133 228.98 54.64C229.46 56.5067 229.62 58.5333 229.46 60.72C229.3 62.8533 229.007 64.88 228.58 66.8C230.553 65.2533 232.473 63.8667 234.34 62.64C236.26 61.4133 238.313 60.32 240.5 59.36C240.713 59.2 241.113 59.0933 241.7 59.04C242.34 58.9333 242.873 58.9067 243.3 58.96C243.727 59.0133 243.94 59.2 243.94 59.52C243.993 59.7867 243.513 60.24 242.5 60.88C240.047 62.4267 237.567 64.1867 235.06 66.16C232.553 68.1333 230.207 70 228.02 71.76C227.647 72.0267 227.407 72.4533 227.3 73.04C226.873 76.0267 226.127 79.3333 225.06 82.96C223.993 86.5867 222.687 90.24 221.14 93.92C219.647 97.6 217.94 101.093 216.02 104.4C214.153 107.76 212.18 110.64 210.1 113.04C208.767 114.587 207.353 115.653 205.86 116.24C204.367 116.88 203.007 117.04 201.78 116.72C200.5 116.4 199.46 115.6 198.66 114.32C197.807 113.093 197.353 111.387 197.3 109.2C197.993 105.893 199.113 102.667 200.66 99.52C202.207 96.4267 204.073 93.36 206.26 90.32C208.393 87.3333 210.767 84.32 213.38 81.28C215.993 78.2933 218.74 75.2533 221.62 72.16C221.993 71.8933 222.34 71.28 222.66 70.32C222.98 69.3067 223.247 68.24 223.46 67.12C223.673 66 223.807 64.96 223.86 64C223.967 62.9867 223.967 62.3733 223.86 62.16C223.327 63.12 222.74 64.2667 222.1 65.6C221.46 66.88 220.793 68.1333 220.1 69.36C219.407 70.5333 218.713 71.5733 218.02 72.48C217.327 73.3333 216.66 73.7867 216.02 73.84ZM201.06 112.48C201.647 112.693 202.5 112.107 203.62 110.72C204.74 109.387 205.993 107.573 207.38 105.28C208.767 103.04 210.18 100.507 211.62 97.68C213.06 94.9067 214.367 92.1867 215.54 89.52C216.767 86.9067 217.78 84.5333 218.58 82.4C219.38 80.2667 219.807 78.7467 219.86 77.84C218.473 79.3333 216.953 81.12 215.3 83.2C213.647 85.3333 212.02 87.5467 210.42 89.84C208.82 92.1867 207.327 94.56 205.94 96.96C204.5 99.36 203.327 101.6 202.42 103.68C201.46 105.76 200.847 107.573 200.58 109.12C200.26 110.72 200.42 111.84 201.06 112.48Z" fill="#C6C6C6"/>
</g>
<defs>
<clipPath id="clip0_293_4392">
<rect width="300" height="120" fill="white"/>
</clipPath>
</defs>
</svg>
