<?xml version="1.0" encoding="iso-8859-1"?>
<!-- Generator: Adobe Illustrator 16.0.0, SVG Export Plug-In . SVG Version: 6.00 Build 0)  -->
<!DOCTYPE svg PUBLIC "-//W3C//DTD SVG 1.1//EN" "http://www.w3.org/Graphics/SVG/1.1/DTD/svg11.dtd">
<!-- License: CC0. Made by SVG Repo: https://www.svgrepo.com/svg/121584/south-africa-rand -->
<svg version="1.1" id="Capa_1" xmlns="http://www.w3.org/2000/svg" xmlns:xlink="http://www.w3.org/1999/xlink" x="0px" y="0px"
	 width="71.167px" height="71.166px" viewBox="0 0 71.167 71.166" style="enable-background:new 0 0 71.167 71.166;"
	 xml:space="preserve">
<g>
	<g>
		<g>
			<g>
				<path d="M56.621,71.166h-8.626c-1.278,0-2.43-0.809-2.862-2.011l-9.406-25.978h-9.799v24.941c0,1.68-1.365,3.046-3.043,3.046
					h-8.338c-1.679,0-3.044-1.366-3.044-3.046V3.097c0-1.675,1.362-3.041,3.036-3.045L30.542,0c9.715,0,16.109,1.868,20.743,6.058
					c3.917,3.457,6.081,8.619,6.081,14.523c0,7.822-2.424,13.282-8.319,18.603l10.427,27.871c0.346,0.94,0.215,1.984-0.35,2.799
					C58.553,70.676,57.618,71.166,56.621,71.166z M24.428,40.18h12.351c0.632,0,1.195,0.396,1.41,0.988l9.767,26.968l8.667,0.03
					c0.01,0,0.023-0.002,0.037-0.021L45.874,39.266c-0.221-0.59-0.049-1.255,0.43-1.664c5.803-4.971,8.063-9.743,8.063-17.021
					c0-5.031-1.804-9.395-5.08-12.287C45.233,4.629,39.458,3,30.547,3L14.548,3.052L14.502,68.12l8.382,0.046l0.043-26.486
					C22.928,40.852,23.6,40.18,24.428,40.18z M31.415,33.766h-6.987c-0.828,0-1.5-0.672-1.5-1.5V11.017
					c0-0.828,0.67-1.499,1.498-1.5l6.694-0.009c0.001,0,0.002,0,0.002,0c0.006,0,0.012,0,0.017,0
					c12.233,0.138,14.801,6.62,14.801,12.034C45.938,28.854,40.102,33.766,31.415,33.766z M25.928,30.766h5.487
					c7.107,0,11.523-3.534,11.523-9.224c0-5.986-3.867-8.942-11.823-9.034l-5.188,0.007L25.928,30.766L25.928,30.766z"/>
			</g>
		</g>
	</g>
</g>
</svg>
