<svg width="95" height="91" viewBox="0 0 95 91" fill="none" xmlns="http://www.w3.org/2000/svg">
<mask id="mask0_1560_2083" style="mask-type:luminance" maskUnits="userSpaceOnUse" x="1" y="0" width="93" height="91">
<path d="M94 0H1V91H94V0Z" fill="white"/>
</mask>
<g mask="url(#mask0_1560_2083)">
<mask id="mask1_1560_2083" style="mask-type:luminance" maskUnits="userSpaceOnUse" x="1" y="0" width="93" height="91">
<path d="M93.5461 0.934082H1.45312V90.9341H93.5461V0.934082Z" fill="white"/>
</mask>
<g mask="url(#mask1_1560_2083)">
<path d="M93.5443 57.2256C93.308 58.7487 93.1134 60.2856 92.8285 61.8017C90.1185 76.2987 78.1456 87.971 63.4697 90.3941C52.8101 92.1525 43.2207 89.6256 34.6528 83.0971C34.2637 82.7994 33.6869 82.6056 33.2005 82.5987C28.7046 82.564 24.2087 82.5779 19.7128 82.571C19.3862 82.571 19.0457 82.5779 18.7261 82.5156C18.0451 82.3771 17.6005 81.8717 17.7186 81.2487C17.8089 80.7848 18.2606 80.321 18.6636 80.0025C18.8999 79.8156 19.3584 79.8917 19.7128 79.8917C23.0969 79.8917 26.4879 79.8917 29.872 79.8917C30.1986 79.8917 30.5252 79.8917 31.0047 79.8917C30.7893 79.594 30.6781 79.4071 30.5321 79.2479C26.6547 74.9971 23.9446 70.1025 22.3881 64.5848C22.2005 63.9133 21.8879 63.7748 21.2625 63.7817C16.8291 63.8025 12.3887 63.7956 7.9554 63.7956C6.49615 63.7956 5.82211 63.3802 5.80126 62.4664C5.78042 61.5387 6.44056 61.1094 7.89981 61.1094C12.0969 61.1094 16.294 61.1094 20.4911 61.1094C20.8107 61.1094 21.1304 61.1094 21.5473 61.1094C20.637 55.6471 20.9149 50.3579 22.4089 44.9787C21.9781 44.9787 21.6585 44.9787 21.3458 44.9787C19.0944 44.9787 16.8499 44.9787 14.5984 44.9787C14.3274 44.9787 14.0564 44.9856 13.7924 44.951C12.9863 44.8471 12.5138 44.3279 12.5555 43.5733C12.5972 42.7979 13.0419 42.341 13.8063 42.3133C15.0015 42.2648 16.2037 42.2856 17.4059 42.2856C19.1431 42.2856 20.8872 42.3064 22.6244 42.2579C22.9232 42.251 23.3887 42.0017 23.486 41.7525C25.932 35.6187 29.7469 30.5094 34.9308 26.4041C34.9516 26.3902 34.9587 26.3556 35.0212 26.231C34.7363 26.2033 34.493 26.1548 34.2498 26.1548C32.4778 26.1548 30.7128 26.1548 28.9409 26.1548C27.836 26.1548 27.1828 25.6217 27.2037 24.7841C27.2245 23.9741 27.8429 23.4825 28.9131 23.4756C32.0609 23.4617 35.2088 23.4964 38.3566 23.4479C38.982 23.441 39.6351 23.2333 40.2258 22.991C41.9352 22.2848 43.61 21.4817 45.3263 20.7825C46.5424 20.284 47.3137 20.5056 47.6334 21.3156C47.9808 22.1948 47.5152 22.8456 46.2505 23.3025C37.8702 26.3071 31.5675 31.7348 27.4608 39.5925C17.8227 58.0356 27.5651 80.8748 47.5639 86.8217C66.3743 92.4156 85.8033 81.0617 90.0698 61.9817C94.2044 43.4625 81.7451 25.0748 62.9138 21.9041C59.6061 21.3502 56.3055 21.2464 52.977 21.7102C51.9833 21.8487 51.2745 21.371 51.1842 20.5402C51.0939 19.7579 51.6359 19.114 52.6157 19.0656C55.0339 18.9479 57.459 18.9064 59.8772 18.8371C60.1135 18.8371 60.3496 18.8371 60.6484 18.8371C61.3016 16.8641 61.9618 14.891 62.6497 12.821C62.073 12.6271 61.5171 12.4402 60.9682 12.2464C59.085 11.5817 58.2094 9.86482 58.807 7.94713C59.2934 6.38251 59.8008 4.8179 60.3428 3.27405C60.996 1.40482 62.7471 0.53944 64.665 1.14174C66.7774 1.80636 68.8759 2.50559 70.9744 3.20482C71.989 3.54405 72.385 4.1879 72.1349 4.9979C71.8917 5.77328 71.1273 6.0779 70.1267 5.75944C68.1323 5.11559 66.138 4.47867 64.1646 3.79328C63.3863 3.52328 63.0041 3.71021 62.7678 4.49251C62.3787 5.8079 61.9479 7.10944 61.4823 8.40405C61.2113 9.14482 61.3434 9.55328 62.1495 9.80944C68.1811 11.7617 74.2057 13.7417 80.2234 15.7425C80.9878 15.9917 81.3977 15.8464 81.6339 15.0571C82.037 13.7141 82.4748 12.3848 82.9473 11.0625C83.2113 10.3217 82.982 9.96174 82.2593 9.73328C80.3206 9.12405 78.3959 8.47328 76.4641 7.82251C75.4843 7.49713 75.102 6.8879 75.3452 6.10559C75.5954 5.28867 76.3111 4.97021 77.3048 5.28867C79.3269 5.93944 81.349 6.59021 83.3573 7.26867C85.3099 7.92636 86.2063 9.65021 85.6017 11.6025C85.1153 13.1671 84.5942 14.7248 84.0452 16.2687C83.392 18.1241 81.7034 18.9617 79.8064 18.4148C79.2644 18.2556 78.7293 18.0825 78.0692 17.8817C77.6175 19.2317 77.1798 20.5471 76.7421 21.8625C76.068 23.891 76.0818 23.8702 77.8051 25.0887C86.9846 31.5756 92.1545 40.4164 93.3844 51.5556C93.4192 51.8464 93.4956 52.1302 93.5512 52.4141V57.2533L93.5443 57.2256ZM63.435 18.9825C66.8747 20.111 70.2587 21.2187 73.7192 22.3471C74.2682 20.6787 74.8658 18.8787 75.4842 16.9956C72.0237 15.8602 68.6396 14.7456 65.2138 13.6171C64.5815 15.5348 63.984 17.3348 63.442 18.9756L63.435 18.9825Z" fill="#A11C22"/>
<path d="M57.258 83.284C41.4564 83.2909 28.74 70.5109 28.7539 54.6294C28.7678 39.1424 41.6162 26.3832 57.2164 26.3901C73.1084 26.3971 85.8386 39.1494 85.8178 55.0448C85.8039 70.5871 72.9763 83.2701 57.258 83.284ZM70.1482 77.1778C75.4362 74.0694 79.14 69.7701 81.3705 64.1694C81.1968 64.0863 81.0926 64.0309 80.9814 63.9894C74.929 61.9955 68.8835 60.0017 62.8241 58.0424C62.5878 57.9663 62.1917 58.1532 61.9485 58.3263C61.2328 58.8524 60.5379 59.4201 59.8847 60.0155C59.6484 60.2301 59.3983 60.604 59.4122 60.8878C59.4608 61.8986 59.6415 62.9024 59.7318 63.9132C59.8222 64.9309 59.4052 65.5401 58.6061 65.644C57.7723 65.7478 57.1816 65.2009 57.0496 64.1763C56.9245 63.2001 56.7855 62.224 56.716 61.2409C56.6813 60.7355 56.4867 60.5555 55.9864 60.4378C52.5537 59.6348 50.6427 56.2148 51.7963 52.9055C51.9839 52.3655 51.8449 52.1094 51.4766 51.7771C49.7116 50.1986 47.9744 48.6063 46.2233 47.014C45.1393 46.0309 44.0344 45.0617 42.9782 44.044C42.1652 43.2617 42.3458 42.1817 43.3048 41.7732C44.0066 41.4755 44.5069 41.8148 44.9933 42.2578C47.6895 44.7155 50.4065 47.1594 53.0887 49.6309C53.5335 50.0463 53.8253 50.0601 54.3882 49.7832C55.2012 49.3886 56.1184 49.1186 57.0218 49.0148C57.6472 48.9455 57.8834 48.7448 58.0641 48.1909C59.9681 42.3824 61.8929 36.5809 63.8108 30.7794C63.8942 30.5371 63.9498 30.2878 64.0332 29.9832C58.1336 28.4394 52.4772 28.8686 46.8904 31.264C47.3837 32.2471 47.8563 33.1401 48.2871 34.0471C48.6554 34.8294 48.4608 35.5494 47.8146 35.9163C47.0919 36.3317 46.3275 36.0755 45.8689 35.224C45.3825 34.324 44.9308 33.3963 44.4513 32.4617C39.1494 35.5771 35.4387 39.8417 33.1873 45.4632C34.1462 45.7748 34.9662 46.0378 35.7861 46.3148C36.9883 46.7232 37.4608 47.3809 37.162 48.2255C36.8701 49.0355 36.1266 49.2571 34.9662 48.8832C34.1184 48.6063 33.2706 48.3363 32.3256 48.0248C30.7899 53.9232 31.1999 59.5724 33.5972 65.1663C34.5701 64.6817 35.4387 64.2248 36.3351 63.8163C36.6478 63.6709 37.0995 63.4701 37.3357 63.5878C37.7735 63.8024 38.253 64.1694 38.4336 64.5917C38.6907 65.194 38.3572 65.7617 37.7596 66.0801C36.7937 66.5924 35.8209 67.0771 34.8133 67.5963C37.9333 72.8578 42.2208 76.5686 47.7868 78.7771C47.898 78.6524 47.9535 78.6178 47.9674 78.5694C48.2315 77.7801 48.4956 76.984 48.7596 76.1948C49.1626 74.9901 49.8089 74.5194 50.6705 74.8171C51.4836 75.094 51.7129 75.8555 51.3376 77.0047C51.0527 77.8701 50.7678 78.7424 50.4621 79.684C56.4033 81.2001 62.0805 80.7986 67.6883 78.3824C67.181 77.3717 66.7154 76.4786 66.2776 75.5648C65.8816 74.734 66.0831 73.9863 66.7571 73.6263C67.4729 73.2455 68.2372 73.5294 68.6819 74.374C69.1545 75.2671 69.5992 76.174 70.1065 77.164L70.1482 77.1778ZM66.6459 30.9248C66.5973 31.0286 66.5417 31.1394 66.507 31.2501C64.5196 37.2524 62.5392 43.2548 60.5379 49.2501C60.3781 49.7209 60.524 49.9494 60.8714 50.2124C62.3029 51.3271 63.0603 52.8086 63.1159 54.6086C63.1298 55.1624 63.3105 55.3771 63.8178 55.5363C66.8405 56.4986 69.8494 57.5024 72.8582 58.4855C75.9504 59.4963 79.0357 60.514 82.128 61.5247C85.6927 50.2124 79.5082 35.5701 66.639 30.9248H66.6459ZM54.1519 54.7401C54.1241 56.4571 55.5069 57.8901 57.2303 57.9317C58.9397 57.9732 60.392 56.5748 60.4267 54.8578C60.4615 53.1409 59.0717 51.7078 57.3484 51.6801C55.6181 51.6524 54.1728 53.0371 54.145 54.7401H54.1519Z" fill="#A11C22"/>
<path d="M11.2249 26.1409C8.61908 26.1409 6.01326 26.1409 3.40744 26.1409C3.08085 26.1409 2.74036 26.1409 2.42766 26.0578C1.76752 25.8848 1.32974 25.3655 1.49652 24.7425C1.61464 24.2786 2.08716 23.8632 2.4902 23.5448C2.70561 23.3786 3.12949 23.4617 3.45609 23.4617C8.60518 23.4617 13.7543 23.4617 18.9034 23.4617C19.2022 23.4617 19.508 23.4617 19.7998 23.5101C20.4738 23.6278 20.856 24.0571 20.8838 24.7355C20.9116 25.4555 20.5503 25.9332 19.8345 26.0855C19.5496 26.1478 19.2369 26.1478 18.9451 26.1478C16.3671 26.1478 13.796 26.1478 11.218 26.1478L11.2249 26.1409Z" fill="#A11C22"/>
<path d="M14.5083 35.5494C12.5001 35.5494 10.4989 35.5494 8.49069 35.5494C7.45531 35.5494 6.83686 35.0164 6.84381 34.1925C6.85076 33.3687 7.46921 32.8633 8.51848 32.8633C12.5279 32.8633 16.5444 32.8633 20.5538 32.8633C21.6031 32.8633 22.2007 33.3756 22.1938 34.2202C22.1868 35.0579 21.5892 35.5425 20.526 35.5494C18.5178 35.5564 16.5166 35.5494 14.5083 35.5494Z" fill="#A11C22"/>
<path d="M7.51946 54.3596C6.02546 54.3596 4.52451 54.3666 3.03051 54.3596C2.05767 54.3458 1.45312 53.8127 1.45312 53.0166C1.45312 52.2204 2.05767 51.6804 3.02356 51.6735C6.04631 51.6666 9.07601 51.6596 12.0988 51.6735C13.0438 51.6735 13.6622 52.2619 13.6344 53.0581C13.6067 53.8266 13.016 54.3458 12.0988 54.3527C10.57 54.3666 9.04126 54.3527 7.51946 54.3527V54.3596Z" fill="#A11C22"/>
<path d="M14.3514 73.1762C13.3021 73.1762 12.2528 73.19 11.2105 73.1762C10.3142 73.1554 9.73047 72.6085 9.73047 71.84C9.73047 71.0716 10.3142 70.5108 11.2105 70.5039C13.3369 70.49 15.4632 70.4831 17.5826 70.5039C18.4304 70.5108 19.0002 71.0577 19.028 71.7916C19.0558 72.56 18.4651 73.1485 17.5826 73.1693C16.5055 73.197 15.4285 73.1693 14.3514 73.1693V73.1762Z" fill="#A11C22"/>
</g>
</g>
</svg>
