<svg width="112" height="112" viewBox="0 0 112 112" fill="none" xmlns="http://www.w3.org/2000/svg">
<path d="M16.3884 53.3441L89.2487 53.3441L61.5549 25.6503C61.0626 25.158 60.786 24.4903 60.786 23.7941C60.786 23.0979 61.0626 22.4302 61.5549 21.9379C62.0472 21.4457 62.7148 21.1691 63.411 21.1691C64.1072 21.1691 64.7749 21.4457 65.2672 21.9379L97.4405 54.1113C97.9328 54.6036 98.2094 55.2713 98.2094 55.9674C98.2094 56.6636 97.9328 57.3313 97.4405 57.8236L65.2672 89.997C64.7749 90.4893 64.1072 90.7658 63.411 90.7658C62.7148 90.7658 62.0472 90.4893 61.5549 89.997C61.0626 89.5047 60.786 88.837 60.786 88.1408C60.786 87.4446 61.0626 86.7769 61.5549 86.2847L89.2487 58.5908L16.3884 58.5908C15.7087 58.5668 15.0648 58.2799 14.5924 57.7906C14.12 57.3012 13.856 56.6476 13.856 55.9675C13.856 55.2873 14.12 54.6337 14.5924 54.1443C15.0648 53.655 15.7087 53.3681 16.3884 53.3441Z" fill="white"/>
</svg>
