<svg width="30" height="30" viewBox="0 0 30 30" fill="none" xmlns="http://www.w3.org/2000/svg">
<path d="M30 15C30 23.2843 23.2843 30 15 30C6.71571 30 0 23.2843 0 15C0 6.71571 6.71571 0 15 0C23.2843 0 30 6.71571 30 15ZM13.265 22.9424L24.394 11.8133C24.7719 11.4354 24.7719 10.8227 24.394 10.4448L23.0254 9.07621C22.6475 8.69825 22.0348 8.69825 21.6568 9.07621L12.5806 18.1523L8.34321 13.9149C7.9653 13.537 7.35254 13.537 6.97458 13.9149L5.60601 15.2834C5.2281 15.6613 5.2281 16.2741 5.60601 16.652L11.8963 22.9423C12.2743 23.3203 12.887 23.3203 13.265 22.9424Z" fill="white"/>
<path d="M13.2646 22.9426L24.3937 11.8136C24.7716 11.4357 24.7716 10.8229 24.3937 10.445L23.0251 9.07644C22.6472 8.69848 22.0344 8.69848 21.6565 9.07644L12.5803 18.1525L8.34289 13.9151C7.96499 13.5372 7.35223 13.5372 6.97426 13.9151L5.60569 15.2837C5.22779 15.6616 5.22779 16.2743 5.60569 16.6522L11.896 22.9425C12.274 23.3205 12.8867 23.3205 13.2646 22.9426Z" fill="black"/>
</svg>
