<svg width="30" height="30" viewBox="0 0 30 30" fill="none" xmlns="http://www.w3.org/2000/svg">
<path d="M11.4313 10.9709L11.4305 10.9727L19.9285 16.5481V16.5474L24.839 19.77L24.8382 19.7708L26.9777 21.1743C27.0941 21.2512 27.1745 21.3711 27.2035 21.5067C27.2306 21.6432 27.2035 21.785 27.1283 21.9022L26.7441 22.4867C26.6435 22.6399 26.4755 22.7231 26.3048 22.7231C26.206 22.7231 26.1044 22.6959 26.0162 22.6373L23.3386 20.8803C20.7832 22.5986 17.9387 23.5488 15.0002 23.5488C9.6862 23.5488 4.63573 20.5344 1.14575 15.2794C0.951417 14.9872 0.951417 14.6108 1.14575 14.3186C2.47659 12.3149 4.03928 10.6489 5.75257 9.34071L3.02174 7.54872C2.90533 7.47176 2.82487 7.35185 2.79596 7.2163C2.76881 7.07978 2.79596 6.93798 2.87115 6.82079L3.25533 6.23625C3.35592 6.08312 3.52389 5.99992 3.69459 5.99992C3.79342 5.99992 3.89498 6.02707 3.98326 6.08566L7.30904 8.2679C7.30904 8.26711 7.30982 8.26711 7.30982 8.26711L11.4313 10.9709ZM9.74949 14.799C9.74949 17.6943 12.1042 20.049 14.9995 20.049C16.6496 20.049 18.1074 19.2728 19.0647 18.0759L10.3787 12.376C9.99026 13.1031 9.74964 13.9178 9.74964 14.7988L9.74949 14.799Z" fill="#666666"/>
<path d="M28.8536 15.2826C28.0434 16.5033 27.1413 17.5891 26.1788 18.5586L20.2343 14.6571C20.1564 11.8307 17.8447 9.5521 14.9994 9.5521C14.3072 9.5521 13.6492 9.6939 13.0437 9.93804L9.08691 7.34196C10.9718 6.50192 12.965 6.05212 15.0004 6.05212C20.3158 6.05212 25.3663 9.06655 28.8543 14.3216C29.0486 14.6139 29.0486 14.9901 28.8543 15.2825L28.8536 15.2826Z" fill="#666666"/>
</svg>
