<svg width="92" height="90" viewBox="0 0 92 90" fill="none" xmlns="http://www.w3.org/2000/svg">
<mask id="mask0_1560_2064" style="mask-type:luminance" maskUnits="userSpaceOnUse" x="1" y="0" width="90" height="90">
<path d="M91 0H1V90H91V0Z" fill="white"/>
</mask>
<g mask="url(#mask0_1560_2064)">
<path d="M90.7237 36.9978C89.0387 42.4561 87.3597 47.9144 85.6688 53.3668C84.5119 57.1046 83.4024 60.866 81.5335 64.3427C80.1749 66.8761 78.4899 69.1366 76.2414 70.958C73.352 73.2955 70.4864 75.6628 67.5911 78.0004C67.1462 78.3623 66.9504 78.736 66.9623 79.3175C66.9919 81.9636 66.9801 84.6037 66.9741 87.2498C66.9741 88.7686 66.5766 89.1721 65.0756 89.1721C60.4538 89.1721 55.838 89.1721 51.2162 89.1721C49.6915 89.1721 49.3236 88.7983 49.3236 87.2557C49.3236 83.1324 49.2109 79.003 49.3533 74.8796C49.4957 70.9283 50.8128 67.2677 52.8003 63.8622C53.2275 63.1324 53.9454 62.9485 54.5861 63.3045C55.2684 63.6842 55.4642 64.4377 54.9777 65.2683C53.5301 67.7601 52.6461 70.4418 52.1121 73.254C52.0172 73.7642 51.9341 74.2863 51.9282 74.8084C51.9104 78.4987 51.9163 82.189 51.9282 85.8793C51.9282 86.0751 51.9697 86.2768 51.9934 86.5082H64.3636C64.3636 85.3869 64.3636 84.3189 64.3636 83.251C64.3636 81.655 64.3933 80.0532 64.3518 78.4572C64.328 77.6207 64.6365 77.0452 65.2773 76.5231C68.131 74.227 70.9017 71.836 73.8029 69.6053C76.8228 67.2795 79.0061 64.3368 80.2817 60.8186C82.0912 55.8349 83.6516 50.7622 85.2832 45.7133C86.1731 42.9545 86.9978 40.1719 87.8462 37.4013C87.9233 37.1521 88.0182 36.9029 88.0598 36.6478C88.1725 35.918 87.8818 35.39 87.1995 35.123C86.541 34.8679 85.829 35.1764 85.562 35.8824C85.2535 36.6952 85.0458 37.5437 84.7848 38.3743C83.794 41.5306 82.9515 44.7344 81.7827 47.8195C79.7477 53.1829 76.2888 57.5436 71.7561 61.05C70.077 62.3493 68.3921 63.6367 66.7071 64.9182C65.9121 65.5234 65.2892 65.5471 64.7552 65.0191C64.2153 64.4851 64.2331 63.7791 64.8561 62.99C67.87 59.187 70.8899 55.3959 73.9097 51.5988C74.1648 51.2784 74.4378 50.9699 74.6395 50.6199C74.948 50.074 74.8827 49.4333 74.3666 49.1544C73.9631 48.9349 73.3639 49.018 72.8596 49.0714C72.6519 49.0951 72.4621 49.3917 72.2782 49.5697C69.5965 52.1861 66.9207 54.8085 64.2331 57.419C63.9483 57.6978 63.6161 57.947 63.2779 58.1606C61.7353 59.1336 60.1928 60.1007 58.6265 61.0322C58.2468 61.2635 57.7543 61.5602 57.3806 61.4831C56.9771 61.4059 56.4194 60.9669 56.3601 60.6109C56.283 60.1659 56.4906 59.4481 56.8347 59.1929C58.223 58.1488 59.7181 57.2588 61.142 56.2621C61.5099 56.007 61.9015 55.6213 62.0379 55.2179C63.2838 51.5098 64.5713 47.8076 65.6629 44.0462C66.3986 41.5128 68.4574 39.8338 71.5187 41.2458C71.9103 39.9999 72.2663 38.7184 73.5359 38.0242C74.7581 37.3479 75.9744 37.3894 77.2796 38.0954C77.4517 37.6089 77.6237 37.158 77.7721 36.7071C78.6679 34.0076 80.7326 33.1118 83.088 34.2153C84.0669 33.6101 84.8797 32.9041 85.8231 32.5837C87.5911 31.9726 89.5608 33.005 90.3618 34.7433C90.4923 35.0281 90.605 35.3188 90.7296 35.6036V36.9978H90.7237ZM77.6119 50.5368C78.045 49.6884 78.5493 48.9349 78.8341 48.0984C79.991 44.7344 81.0767 41.3407 82.1921 37.959C82.4057 37.3123 82.3998 36.7368 81.6463 36.452C81.0233 36.2147 80.5605 36.5291 80.2817 37.4013C79.196 40.7356 78.1221 44.0699 77.0542 47.4101C76.9711 47.6712 76.9474 47.9797 77.0008 48.2467C77.161 48.9705 77.3805 49.6884 77.6119 50.5427V50.5368ZM65.9062 51.8361C66.007 51.9251 66.1138 52.0141 66.2147 52.1031C66.9148 51.3318 67.6089 50.5605 68.309 49.7952C68.5997 49.4748 69.021 49.2019 69.1574 48.8222C69.6499 47.4339 70.077 46.0159 70.4686 44.592C70.6288 44.0165 70.3322 43.5715 69.7389 43.3876C69.1278 43.1918 68.665 43.4707 68.4811 44.0106C67.5971 46.6092 66.7605 49.2256 65.9062 51.8361ZM74.681 46.2235C75.1972 44.6335 75.7193 43.0672 76.2117 41.4891C76.3897 40.9195 76.2176 40.4271 75.6184 40.2194C75.0548 40.0177 74.6157 40.2787 74.4378 40.8068C73.8504 42.5807 73.3105 44.3725 72.7291 46.2235H74.681Z" fill="#A11C22"/>
<path d="M27.8253 86.526H40.2192C40.237 86.17 40.2667 85.8378 40.2667 85.4996C40.2667 82.1297 40.4624 78.7479 40.2311 75.3958C39.709 67.8076 36.4696 61.8509 29.3916 58.3801C28.8339 58.1072 28.2881 57.7335 27.8372 57.3004C25.2207 54.7848 22.634 52.2336 20.0353 49.7003C19.9108 49.5757 19.7862 49.4511 19.6616 49.3384C19.0089 48.7391 18.3207 48.662 17.8046 49.1248C17.2528 49.6172 17.2291 50.2698 17.7927 50.9877C19.0801 52.6371 20.3854 54.2686 21.6906 55.9061C23.5358 58.2259 25.375 60.5457 27.2201 62.8655C27.3447 63.0256 27.4812 63.1799 27.582 63.352C27.9321 63.9452 27.9261 64.5267 27.4278 65.0191C26.9235 65.5175 26.348 65.5293 25.7666 65.1378C17.6088 59.6261 11.0291 52.9218 8.73903 42.8952C8.25253 40.7534 7.49311 38.6709 6.85829 36.5588C6.82269 36.4461 6.78709 36.3393 6.75149 36.2266C6.42518 35.2714 5.78442 34.862 5.00128 35.123C4.27152 35.3663 3.95115 36.0723 4.22406 36.98C4.86482 39.1159 5.51151 41.2577 6.18786 43.3817C7.89655 48.7688 9.57557 54.1678 11.3614 59.5311C12.2157 62.1001 13.5091 64.4792 15.2356 66.5913C15.3661 66.7515 15.4907 66.9117 15.5975 67.0838C16.0247 67.7542 15.9475 68.4424 15.4136 68.8814C14.85 69.3383 14.0431 69.2968 13.5625 68.6501C12.631 67.3923 11.6877 66.1286 10.9105 64.7759C9.22553 61.845 8.15167 58.6531 7.1668 55.4315C5.37505 49.5816 3.57737 43.7317 1.76189 37.8937C1.31692 36.4639 1.39405 35.1468 2.34332 33.9483C3.87995 32.0082 6.7159 31.9311 8.36525 33.7703C8.51951 33.9424 8.65597 34.1263 8.83989 34.3518C10.1807 33.6339 11.5275 33.5389 12.8624 34.3874C14.1914 35.2358 14.3694 36.7249 14.9152 38.0895C16.1789 37.4428 17.4189 37.336 18.6648 38.0361C19.9226 38.7421 20.3083 39.9999 20.6286 41.145C21.5008 40.9966 22.2958 40.7059 23.0671 40.7653C24.8351 40.8899 25.8496 42.0052 26.3777 43.6487C27.6236 47.5407 28.8932 51.4267 30.1866 55.3069C30.3053 55.6688 30.6316 56.0663 30.9638 56.2324C37.1341 59.365 40.771 64.4377 42.2423 71.0944C42.6517 72.9455 42.8 74.8797 42.8534 76.7782C42.9483 80.2608 42.8831 83.7494 42.8772 87.238C42.8772 88.828 42.5212 89.184 40.9252 89.184C36.3331 89.184 31.747 89.184 27.1549 89.184C25.6064 89.184 25.2267 88.7924 25.2207 87.2024C25.2207 84.6156 25.1911 82.0288 25.2385 79.448C25.2504 78.7598 25.0131 78.3326 24.491 77.9232C22.4441 76.2976 20.4328 74.6305 18.4097 72.9692C18.1427 72.7497 17.8639 72.5243 17.6503 72.2573C17.2587 71.7708 17.1994 71.1419 17.6622 70.7622C18.0241 70.4596 18.6174 70.3825 19.1217 70.335C19.3471 70.3172 19.6141 70.602 19.8396 70.7859C22.2305 72.726 24.6037 74.6839 27.0065 76.6121C27.6058 77.0926 27.8431 77.6563 27.8372 78.4157C27.8075 81.0855 27.8253 83.7494 27.8253 86.5319V86.526ZM14.4702 50.5843C15.7518 48.223 14.8025 46.188 14.0787 44.1292C14.049 44.0462 14.0312 43.9631 14.0075 43.8801C13.2955 41.6789 12.5895 39.4719 11.8657 37.2708C11.664 36.6597 11.2961 36.2206 10.5782 36.452C9.88409 36.6715 9.76543 37.2055 9.96715 37.8463C9.98494 37.8996 9.99088 37.959 10.0087 38.0183C10.7859 40.5635 11.4919 43.1384 12.3581 45.654C12.9395 47.333 13.7464 48.929 14.4643 50.5902L14.4702 50.5843ZM25.9623 52.115C26.0691 52.026 26.1819 51.937 26.2887 51.848C25.4343 49.2375 24.5978 46.627 23.7138 44.0224C23.5298 43.4766 23.0671 43.2096 22.456 43.3936C21.8152 43.5893 21.572 44.0699 21.7262 44.681C21.9576 45.5769 22.2483 46.4609 22.539 47.339C22.7348 47.9382 22.8416 48.6323 23.2154 49.101C24.0519 50.163 25.0309 51.1182 25.9564 52.115H25.9623ZM19.4539 46.2117C18.8844 44.3844 18.3504 42.6104 17.7808 40.8543C17.6088 40.3262 17.1875 40.0296 16.6239 40.2016C16.0306 40.3796 15.7933 40.8602 15.9713 41.4416C16.4637 43.0435 16.9977 44.6335 17.5079 46.2117H19.4539Z" fill="#A11C22"/>
<path d="M57.8467 24.4913C55.4676 24.1413 53.0945 23.7616 50.7094 23.4471C49.4991 23.2869 48.6981 22.6699 48.1761 21.5842C47.2564 19.6797 46.3072 17.7871 45.3698 15.8886C45.2452 15.6394 45.0969 15.408 44.8833 15.0224C44.5688 15.6394 44.3196 16.114 44.0823 16.6005C43.2458 18.2914 42.4033 19.9764 41.5786 21.6732C41.0803 22.6936 40.303 23.2751 39.1639 23.4353C36.8916 23.7497 34.6252 24.0998 32.3588 24.4379C32.2283 24.4557 32.0978 24.4913 31.8249 24.5507C32.0978 24.8473 32.2758 25.0609 32.4716 25.2507C33.9667 26.7162 35.438 28.1994 36.9628 29.6292C37.9239 30.5311 38.2384 31.5634 37.9892 32.8508C37.5858 34.957 37.2416 37.081 36.8797 39.1931C36.8441 39.3889 36.8501 39.5847 36.8263 39.9348C37.1764 39.7627 37.4315 39.6559 37.6747 39.5254C39.5496 38.5405 41.4303 37.5735 43.2932 36.5649C44.3849 35.9716 45.4232 35.9834 46.5148 36.5708C48.6032 37.698 50.7094 38.7838 52.958 39.9585C52.9105 39.4245 52.8571 39.0389 52.8453 38.6532C52.8156 37.876 53.2487 37.2887 53.9429 37.2175C54.6786 37.1463 55.1413 37.5201 55.3668 38.2261C56.0669 40.445 55.171 42.2664 53.1716 42.4622C52.5546 42.5215 51.8485 42.2901 51.279 42.0054C49.327 41.0442 47.4285 39.9763 45.4825 39.0033C45.1621 38.8431 44.6341 38.849 44.3137 39.0033C42.3143 40 40.3564 41.0798 38.3689 42.0884C36.6602 42.9546 34.8863 42.3495 34.382 40.6882C34.2099 40.1305 34.2218 39.472 34.3108 38.8906C34.643 36.7428 35.0643 34.607 35.3906 32.4533C35.438 32.127 35.2719 31.6524 35.0405 31.4091C33.4683 29.8191 31.8545 28.2706 30.2526 26.7102C29.3924 25.8737 29.0127 24.8829 29.4042 23.7082C29.7839 22.5691 30.6739 22.0232 31.8189 21.8452C32.7089 21.7088 33.5988 21.5901 34.4888 21.4655C35.8118 21.2757 37.1408 21.1273 38.446 20.8722C38.7961 20.801 39.2173 20.4807 39.3894 20.1603C40.3861 18.2617 41.3294 16.3335 42.255 14.3994C42.8008 13.2603 43.6018 12.4712 44.907 12.4712C46.2122 12.4712 47.0191 13.2425 47.559 14.3875C48.4668 16.2979 49.4398 18.1787 50.3534 20.0891C50.5908 20.5815 50.8815 20.8485 51.4392 20.9197C53.5691 21.1985 55.6931 21.5249 57.8171 21.8156C59.0215 21.9817 59.9826 22.4801 60.4038 23.6963C60.831 24.9244 60.386 25.9093 59.508 26.7577C57.9654 28.2587 56.4406 29.7657 54.8803 31.2489C54.465 31.6405 54.2039 32.0084 54.4294 32.6017C54.5184 32.833 54.5006 33.1178 54.4828 33.3789C54.4472 34.0434 54.0853 34.4646 53.4208 34.5595C52.7681 34.6544 52.2282 34.4053 52.0443 33.7645C51.5578 32.0795 51.4154 30.9226 52.8868 29.5521C54.3938 28.146 55.8414 26.6746 57.3306 25.2448C57.5382 25.049 57.823 24.9363 58.0722 24.788C57.9951 24.6812 57.9239 24.5744 57.8467 24.4676V24.4913Z" fill="#A11C22"/>
<path d="M7.22789 20.7951C7.46521 19.4246 7.72033 17.793 8.03477 16.1734C8.15937 15.5385 8.05257 15.0995 7.55421 14.6486C6.45661 13.6578 5.42428 12.5899 4.36229 11.5635C3.62067 10.8396 3.25283 9.99716 3.5732 8.97076C3.89358 7.94437 4.66486 7.44006 5.6972 7.29174C7.1923 7.07816 8.68146 6.84084 10.1766 6.66285C10.7818 6.59165 11.1496 6.3484 11.4047 5.77291C12.0099 4.42613 12.6981 3.11495 13.3448 1.78598C13.8194 0.818906 14.5017 0.184082 15.6349 0.184082C16.7622 0.184082 17.4445 0.824839 17.9072 1.78598C18.5539 3.11495 19.254 4.4202 19.8532 5.76698C20.1143 6.35434 20.494 6.57979 21.0932 6.65098C22.4756 6.81711 23.852 7.02476 25.2285 7.22055C26.1125 7.34514 26.9372 7.57652 27.4415 8.41307C28.0526 9.4276 27.8983 10.5371 26.949 11.4923C25.8218 12.6255 24.6471 13.7052 23.5435 14.8562C23.3181 15.0936 23.1757 15.5623 23.2231 15.8886C23.4427 17.4964 23.7334 19.0924 24.0004 20.7002C24.1605 21.6673 23.8876 22.4979 23.0926 23.0852C22.262 23.6963 21.3721 23.7022 20.4703 23.2276C19.082 22.4979 17.6877 21.7918 16.3172 21.0324C15.8307 20.7654 15.4451 20.7476 14.9526 21.0265C13.5347 21.8156 12.1048 22.5869 10.6394 23.2869C8.93065 24.0998 7.18043 22.931 7.22789 20.801V20.7951ZM21.3721 20.7595C21.0932 19.0864 20.9093 17.621 20.5889 16.1852C20.3041 14.9037 20.672 13.9544 21.5975 13.0645C22.6773 12.0262 23.6562 10.8871 24.6767 9.80137C23.2409 9.58779 21.728 9.31487 20.2092 9.14282C19.0226 9.00636 18.2395 8.43087 17.7411 7.357C17.0944 5.9687 16.3884 4.59819 15.6349 3.06749C14.8696 4.61599 14.1576 6.02803 13.4753 7.45786C12.9948 8.46646 12.2353 9.00043 11.1259 9.13689C9.58327 9.32674 8.04664 9.58779 6.6168 9.80137C7.5898 10.8515 8.50941 11.9788 9.5714 12.9518C10.6394 13.9248 10.9538 15.0046 10.6572 16.3869C10.3605 17.7693 10.1706 19.1754 9.89772 20.7714C11.3929 19.9823 12.7337 19.3178 14.033 18.5821C15.1247 17.9592 16.1452 17.9592 17.2368 18.5821C18.5421 19.3237 19.8888 19.9882 21.378 20.7714L21.3721 20.7595Z" fill="#A11C22"/>
<path d="M65.7768 20.7417C66.0141 19.3712 66.2811 17.6803 66.6015 16.0013C66.6964 15.4911 66.6015 15.1351 66.2159 14.7732C65.0945 13.723 64.0088 12.6314 62.9053 11.5575C62.1696 10.8396 61.778 10.015 62.1043 8.97076C62.4306 7.93843 63.1901 7.43413 64.2165 7.28581C65.7056 7.06629 67.2007 6.83491 68.6958 6.65098C69.295 6.57979 69.6748 6.35434 69.9358 5.77291C70.541 4.42613 71.2292 3.11495 71.8759 1.78598C72.3564 0.830772 73.0328 0.184082 74.166 0.184082C75.2932 0.184082 75.9815 0.812973 76.4502 1.76818C77.1087 3.12089 77.8148 4.4558 78.4377 5.83224C78.675 6.36027 79.0073 6.56199 79.5412 6.63319C80.8939 6.80524 82.2407 7.00696 83.5934 7.20275C83.8545 7.23835 84.1096 7.27988 84.3647 7.33921C86.3522 7.79011 87.0345 9.86664 85.6344 11.3499C84.5368 12.5127 83.3798 13.6103 82.217 14.702C81.7957 15.0995 81.6474 15.4555 81.7661 16.0606C82.0924 17.6803 82.3712 19.3119 82.5611 20.9494C82.7154 22.2783 81.8966 23.3581 80.627 23.4946C80.0633 23.5599 79.4166 23.3759 78.8886 23.1327C77.5537 22.5038 76.2485 21.8037 74.961 21.074C74.4211 20.7714 73.9939 20.7476 73.4422 21.0562C72.0539 21.8393 70.6478 22.5928 69.2061 23.2751C67.4855 24.0938 65.759 22.9428 65.7946 20.7417H65.7768ZM68.4229 20.7536C69.562 20.1544 70.6003 19.739 71.4902 19.122C73.3176 17.8464 75.0381 17.8583 76.8595 19.128C77.7614 19.7568 78.8055 20.1721 79.915 20.7536C79.6362 19.1102 79.4404 17.6447 79.1319 16.203C78.8649 14.9393 79.1734 13.9604 80.1167 13.0764C81.2084 12.05 82.2111 10.9286 83.2968 9.80731C81.9085 9.59965 80.5202 9.30894 79.12 9.20215C77.5656 9.08349 76.646 8.31221 76.0586 6.91203C75.5306 5.65425 74.8601 4.44986 74.1719 3.06749C73.3947 4.64565 72.6887 6.03989 72.0183 7.446C71.5377 8.44866 70.7783 8.98856 69.6688 9.12502C68.1203 9.31487 66.5837 9.57592 65.1301 9.78951C66.1328 10.8634 67.0821 11.9966 68.1559 12.9933C69.1586 13.9248 69.479 14.9512 69.2001 16.2742C68.8975 17.6862 68.7018 19.122 68.4229 20.7536Z" fill="#A11C22"/>
</g>
</svg>
