<svg width="93" height="91" viewBox="0 0 93 91" fill="none" xmlns="http://www.w3.org/2000/svg">
<mask id="mask0_1560_2049" style="mask-type:luminance" maskUnits="userSpaceOnUse" x="1" y="0" width="91" height="91">
<path d="M92 0H1V91H92V0Z" fill="white"/>
</mask>
<g mask="url(#mask0_1560_2049)">
<mask id="mask1_1560_2049" style="mask-type:luminance" maskUnits="userSpaceOnUse" x="1" y="0" width="91" height="91">
<path d="M91.336 0.934082H1.33594V90.9341H91.336V0.934082Z" fill="white"/>
</mask>
<g mask="url(#mask1_1560_2049)">
<path d="M91.3359 51.3816C90.7354 52.5971 89.7615 53.0144 88.4142 52.9851C85.5438 52.9192 82.6734 52.9705 79.803 52.9632C78.1262 52.9632 77.2768 52.0992 77.2695 50.4152C77.2695 47.4278 77.2695 44.4405 77.2695 41.4532C77.2695 39.7619 78.1189 38.9126 79.803 38.9052C82.6734 38.9052 85.5438 38.9492 88.4142 38.8833C89.7615 38.854 90.7354 39.2713 91.3359 40.4867V51.389V51.3816ZM79.9714 41.5777V50.2614H88.6558V41.5777H79.9714Z" fill="#A11C22"/>
<path d="M42.6336 90.9339C42.3334 90.6264 41.9599 90.3555 41.7476 89.9967C40.7224 88.2907 39.7559 86.5481 38.7454 84.8421C38.3573 84.1905 38.3646 83.6121 38.7454 82.9531C39.7485 81.2691 40.7297 79.5704 41.689 77.8571C42.0698 77.1762 42.5823 76.8467 43.3805 76.854C45.3429 76.8833 47.3053 76.8833 49.2677 76.854C50.0732 76.8394 50.5784 77.1689 50.9665 77.8571C51.9257 79.5631 52.907 81.2691 53.9101 82.9531C54.2982 83.6048 54.3055 84.1832 53.9101 84.8421C52.8923 86.5555 51.9257 88.2907 50.9079 89.9967C50.6956 90.3555 50.3221 90.6191 50.0219 90.9339H42.6409H42.6336ZM46.2728 88.1736C48.367 88.9131 49.2604 87.6977 50.2416 86.0649C51.1935 84.4834 51.1642 83.3705 50.2636 81.767C49.2823 80.0097 48.2133 79.3947 46.2069 79.424C44.369 79.4533 43.4171 79.9878 42.4871 81.5839C41.4986 83.2826 41.4034 84.4907 42.4798 86.1894C43.4537 87.7196 44.2811 88.8692 46.2728 88.1736Z" fill="#A11C22"/>
<path d="M55.4558 26.8898C59.8859 29.1668 63.0784 32.3738 65.3337 36.723C66.0953 36.1592 66.8568 35.676 67.5158 35.0829C68.519 34.1823 69.4416 33.2012 70.4082 32.2567C71.1111 31.5757 71.8507 31.5098 72.4219 32.0516C73.0296 32.6301 72.9857 33.4062 72.2534 34.131C70.5253 35.837 68.9291 37.6895 66.7616 38.8976C66.5786 39.0001 66.4321 39.4321 66.4907 39.6444C67.7501 43.8325 67.7428 48.0059 66.5053 52.194C66.4394 52.421 66.6152 52.831 66.8129 52.9994C67.9991 53.9952 69.3025 54.8518 70.4155 55.9208C73.447 58.8496 76.4053 61.8662 79.3928 64.8461C79.5759 65.0292 79.7589 65.2269 79.964 65.3953C80.6523 65.9591 81.5163 65.9151 82.1094 65.3147C82.6952 64.7144 82.7099 63.865 82.1314 63.1694C81.9849 62.9937 81.8019 62.8326 81.6408 62.6716C79.0926 60.1236 76.5444 57.5756 73.9889 55.0349C72.6488 53.7096 71.9679 52.1354 71.9825 50.2391C72.0118 47.3689 72.0118 44.4988 71.9825 41.6286C71.9679 39.7323 72.6415 38.1581 73.9889 36.8328C76.2222 34.6289 78.4262 32.4031 80.6449 30.1919C80.9525 29.8844 81.2673 29.5695 81.5749 29.262C82.6806 28.1564 82.849 27.3144 82.1094 26.5529C81.3625 25.7842 80.4838 25.9379 79.4001 27.0215C78.5507 27.8709 77.7526 28.7788 76.8226 29.5329C76.4638 29.8258 75.7755 29.921 75.3215 29.8038C74.9993 29.716 74.6698 29.1376 74.6039 28.7349C74.5527 28.4054 74.7943 27.9368 75.0506 27.6659C76.0538 26.5969 77.0862 25.5572 78.1553 24.5614C79.8322 23.0092 82.3657 23.0751 83.9547 24.6639C85.5803 26.2894 85.6535 28.8447 84.0279 30.5141C81.3918 33.2158 78.7045 35.881 76.0098 38.5315C75.0506 39.476 74.5893 40.5377 74.6113 41.8922C74.6625 44.5866 74.6625 47.2811 74.6113 49.9755C74.5893 51.33 75.036 52.399 76.0025 53.3435C78.6825 55.9648 81.3332 58.6226 83.9693 61.2877C85.2654 62.5983 85.5583 64.3995 84.826 65.9884C84.1158 67.5406 82.4975 68.5217 80.7841 68.4265C79.5832 68.3606 78.624 67.8115 77.7819 66.9622C74.6405 63.8064 71.4992 60.6507 68.3213 57.5316C67.4499 56.675 66.4541 55.9501 65.3996 55.0642C63.1443 59.4426 59.9664 62.6935 55.4924 64.9487C56.3345 65.9737 57.0594 66.9914 57.9234 67.8701C61.0648 71.0697 64.2427 74.2327 67.4133 77.3958C68.5263 78.5087 69.0755 79.8047 68.7606 81.3715C68.4385 82.9604 67.4865 84.066 65.9415 84.5712C64.3232 85.0983 62.8661 84.7103 61.6579 83.5168C59.0804 80.9615 56.4956 78.4062 53.9693 75.7923C52.9002 74.6867 51.7213 74.1376 50.1617 74.1888C47.4963 74.2693 44.8309 74.2327 42.1656 74.2035C40.9061 74.1888 39.9103 74.6208 39.0316 75.5141C36.3808 78.2085 33.7082 80.881 31.0208 83.5388C29.7101 84.8348 27.9161 85.1423 26.3198 84.4247C24.7675 83.7218 23.7789 82.1184 23.8522 80.405C23.9034 79.3361 24.3062 78.4135 25.053 77.652C26.2686 76.422 27.4841 75.1919 28.7143 73.9838C29.4026 73.3102 30.1714 73.2736 30.7279 73.852C31.2625 74.4085 31.2039 75.1992 30.5375 75.8728C29.4319 77.0004 28.3042 78.1133 27.1912 79.2336C26.3345 80.0975 26.2539 80.9981 26.9496 81.6937C27.6452 82.3893 28.5385 82.3014 29.4099 81.4301C31.9801 78.8601 34.5649 76.3121 37.1058 73.7129C38.541 72.2412 40.2251 71.531 42.29 71.5676C45.014 71.6188 47.7379 71.6115 50.4619 71.5676C52.4902 71.5383 54.1524 72.2412 55.5656 73.6836C58.0406 76.217 60.5668 78.7064 63.0711 81.2178C63.2761 81.4228 63.4812 81.6424 63.7082 81.8182C64.3525 82.3014 65.1507 82.2501 65.7145 81.7157C66.3003 81.1592 66.3735 80.3172 65.8683 79.6436C65.6925 79.4093 65.4729 79.2116 65.2678 79.0066C62.2876 76.0193 59.2708 73.0686 56.3418 70.03C55.2727 68.9244 54.416 67.6138 53.4201 66.4277C53.2517 66.23 52.8417 66.0469 52.622 66.1128C48.4336 67.3429 44.2525 67.3649 40.064 66.0982C39.8444 66.0323 39.4343 66.2226 39.2586 66.4277C37.8527 68.0311 36.52 69.6859 35.0994 71.2747C34.499 71.9483 33.7082 71.9117 33.159 71.3479C32.6318 70.8061 32.6684 70.052 33.2835 69.4003C33.8253 68.8292 34.4258 68.302 34.9456 67.709C35.6925 66.8596 36.3882 65.9591 37.1936 64.9779C32.8368 62.7448 29.6149 59.5744 27.3596 55.174C26.4004 55.9721 25.4485 56.653 24.6283 57.4657C21.3918 60.6507 18.1919 63.8797 14.9701 67.0793C13.4323 68.6022 11.3821 68.8732 9.67592 67.8261C7.32542 66.3837 6.9593 63.2719 8.94367 61.2511C11.5358 58.6226 14.1426 56.0087 16.786 53.4314C17.7965 52.443 18.2871 51.3447 18.2505 49.9242C18.1919 47.2591 18.1919 44.594 18.2505 41.9288C18.2798 40.5377 17.7965 39.4613 16.808 38.4949C14.1499 35.8956 11.5212 33.2524 8.90706 30.6092C7.71351 29.4011 7.34738 27.9295 7.88924 26.3186C8.40181 24.7811 9.51482 23.8292 11.1111 23.529C12.6415 23.2362 13.9229 23.756 15.014 24.8543C18.1992 28.0466 21.3845 31.2462 24.5991 34.4093C25.4265 35.222 26.3711 35.9103 27.3523 36.7303C29.6076 32.3518 32.8002 29.1595 37.201 26.9264C36.3442 25.9013 35.634 24.9055 34.7846 24.0342C31.5847 20.7687 28.3335 17.5617 25.1116 14.3108C23.9181 13.1101 23.5227 11.653 24.0425 10.0276C24.5332 8.48262 25.6315 7.51614 27.2205 7.18665C28.5312 6.91575 29.7467 7.21594 30.7353 8.11653C31.7091 9.00247 32.6318 9.95431 33.5397 10.8989C34.1402 11.5212 34.1329 12.2314 33.5983 12.7806C33.0565 13.337 32.3023 13.3297 31.6506 12.7074C30.9476 12.0411 30.2813 11.3455 29.593 10.6572C28.5458 9.61018 27.6964 9.45642 26.9496 10.1886C26.1807 10.9355 26.3345 11.8141 27.4109 12.8977C30.3472 15.8411 33.3274 18.7552 36.2124 21.7425C37.3254 22.892 38.2261 24.2392 39.2512 25.4766C39.4123 25.667 39.7858 25.8647 39.9762 25.8061C44.3403 24.4809 48.6899 24.5614 52.9954 25.9086C56.5834 20.8639 61.4089 17.0272 65.5681 12.5609C66.3076 11.7628 66.3808 10.8915 65.7365 10.2253C65.0701 9.52964 64.1475 9.57357 63.342 10.3717C60.7499 12.9563 58.1431 15.5336 55.5876 18.1548C54.1524 19.6265 52.4755 20.3587 50.4106 20.3221C47.6574 20.2781 44.8968 20.2415 42.1509 20.3294C39.3757 20.4173 37.5524 18.8723 35.9195 16.954C35.4655 16.4195 35.5388 15.7825 36.0367 15.2846C36.5639 14.7575 37.1936 14.7062 37.7721 15.1821C38.27 15.5922 38.7021 16.0681 39.156 16.5294C39.8883 17.2689 40.7597 17.6789 41.8214 17.6716C44.8163 17.6716 47.8038 17.6642 50.7987 17.6716C51.9264 17.6716 52.8197 17.1956 53.5959 16.4122C56.2832 13.7104 58.9632 11.0087 61.6725 8.32886C62.9759 7.04022 64.7699 6.74734 66.3735 7.47953C67.9112 8.18242 68.8998 9.81519 68.8046 11.5212C68.7387 12.722 68.1822 13.6812 67.3401 14.5232C64.2061 17.6423 61.0721 20.7687 57.9674 23.9244C57.096 24.8177 56.3418 25.8281 55.4338 26.9044L55.4558 26.8898ZM54.9139 62.2323C55.2215 62.0712 55.4558 61.9687 55.6755 61.8369C60.0909 59.1571 62.9393 55.3131 64.272 50.3269C64.5209 49.3971 64.4038 48.9065 63.4592 48.4379C57.982 45.7288 56.7958 38.0775 60.7938 34.5996C58.8607 31.5391 52.9295 27.8855 50.2569 28.0027C50.5278 28.9399 50.9818 29.8917 51.0623 30.8802C51.3113 33.8601 49.6125 35.8151 47.3352 37.3893C46.603 37.8945 45.8341 37.748 45.4021 37.1037C44.9774 36.4667 45.1824 35.7931 45.8634 35.2C46.5663 34.5923 47.2986 33.9846 47.8551 33.2451C48.7558 32.0443 48.6752 30.6166 47.7892 29.4085C46.6615 27.8782 45.263 27.3144 43.3005 27.6878C34.8431 29.3206 28.868 35.7272 27.9234 44.2864C27.8649 44.8429 27.982 45.1065 28.5678 45.2822C31.4602 46.1535 32.5659 45.3994 32.8148 42.434C32.932 41.0721 33.0931 39.681 33.4885 38.385C34.1182 36.3276 35.9342 35.2513 38.0504 35.5076C38.973 35.6174 39.8956 35.8297 40.7963 36.0567C41.6164 36.2617 42.0118 36.9133 41.8361 37.6162C41.653 38.3484 41.0526 38.7292 40.2178 38.5827C39.4709 38.4509 38.7313 38.2532 37.9845 38.1361C36.8714 37.9604 36.1831 38.3997 35.8536 39.476C35.7145 39.9226 35.6559 40.3912 35.5973 40.8525C35.4655 41.9288 35.4143 43.0124 35.2385 44.0814C34.7846 46.8198 32.9979 48.2915 30.23 48.2036C29.5124 48.1816 28.8021 48.0352 28.0845 47.9473C27.8941 50.7004 30.4204 56.3382 32.705 58.2199C32.8221 57.949 32.9247 57.6854 33.0345 57.4291C34.067 55.1228 35.7511 53.6071 38.314 53.3362C41.0379 53.0507 43.2566 53.9879 44.7797 56.3528C45.0506 56.7702 45.3362 57.1802 45.6144 57.5902C46.3247 58.6445 47.3279 58.9447 48.5288 58.7104C48.9022 58.6372 49.2683 58.5201 49.6344 58.4395C51.7653 57.9929 53.4568 58.8422 54.3721 60.8191C54.5624 61.2438 54.7016 61.6904 54.8993 62.2176L54.9139 62.2323ZM11.8507 66.0103C12.4145 65.6149 12.9125 65.366 13.2859 64.9999C16.4126 61.9101 19.488 58.7763 22.6366 55.7158C23.6178 54.764 24.7528 53.9659 25.8585 53.1605C26.2246 52.8896 26.3564 52.6992 26.21 52.2453C24.892 48.0425 24.892 43.8325 26.21 39.6371C26.3564 39.1758 26.21 38.9927 25.8439 38.7218C24.7382 37.9091 23.6105 37.1037 22.6293 36.1592C20.2202 33.8455 17.8917 31.4586 15.5266 29.1009C14.6552 28.2296 13.8058 27.3437 12.9051 26.509C12.2534 25.9013 11.3674 25.9526 10.767 26.5456C10.1665 27.1387 10.1299 27.9954 10.7011 28.6836C10.8695 28.8886 11.0672 29.0643 11.2503 29.2474C13.7985 31.7954 16.3467 34.3434 18.9022 36.8841C20.2129 38.1873 20.8866 39.7396 20.8719 41.5993C20.85 44.4695 20.8426 47.3396 20.8719 50.2098C20.8939 52.1428 20.1983 53.7316 18.8363 55.0788C16.2734 57.6122 13.7326 60.1675 11.1844 62.7155C10.9574 62.9425 10.6205 63.1621 10.562 63.433C10.4521 63.9382 10.3423 64.5679 10.5473 64.9926C10.7523 65.4172 11.3381 65.6515 11.8507 66.0323V66.0103ZM46.3613 64.5972C48.1626 64.2531 49.9566 63.9016 51.758 63.5721C52.3071 63.4696 52.3804 63.1841 52.2632 62.6935C51.8898 61.1706 51.2747 60.7825 49.737 61.1486C49.51 61.1999 49.283 61.2511 49.0487 61.2951C46.7641 61.749 44.8968 61.0827 43.5056 59.179C43.1102 58.6372 42.8319 57.9856 42.3559 57.5316C41.7848 56.9825 41.1331 56.3894 40.4082 56.1478C37.9039 55.3278 35.7877 56.7409 35.0921 59.5305C34.931 60.1748 35.0408 60.5848 35.6266 60.9875C38.8485 63.2061 42.3999 64.3556 46.354 64.5899L46.3613 64.5972ZM64.7846 46.1315C64.7699 42.7855 64.0011 39.7615 62.4121 36.9207C59.8273 38.9854 61.1673 44.323 64.7846 46.1315Z" fill="#A11C22"/>
<path d="M53.3525 8.02899C53.3232 11.8949 50.1233 15.036 46.2351 14.9921C42.3688 14.9554 39.2495 11.7485 39.2934 7.85327C39.3447 4.03127 42.5226 0.91949 46.3669 0.934134C50.2404 0.948777 53.3818 4.1411 53.3525 8.02899ZM50.7164 8.04364C50.753 5.61279 48.7979 3.59928 46.3815 3.57732C43.9871 3.55535 41.9881 5.46635 41.9368 7.84595C41.8782 10.2841 43.8114 12.3123 46.2278 12.3562C48.6588 12.4001 50.6871 10.4598 50.7164 8.04364Z" fill="#A11C22"/>
<path d="M15.3877 45.978C15.3877 47.3545 15.4024 48.731 15.3877 50.1075C15.3658 51.9453 13.8647 52.963 12.1878 52.2235C9.00253 50.8177 5.84656 49.3534 2.67595 47.911C1.82654 47.5302 1.33594 46.8713 1.33594 45.9268C1.33594 44.9822 1.83387 44.3306 2.68327 43.9425C5.85388 42.5001 9.00985 41.0431 12.1878 39.63C13.8427 38.8978 15.3584 39.9302 15.3804 41.7533C15.395 43.1591 15.3804 44.5649 15.3804 45.9707L15.3877 45.978ZM12.7077 42.2951C10.0496 43.5032 7.46482 44.6747 4.67497 45.9341C7.46482 47.2008 10.0423 48.3723 12.7077 49.573V42.2951Z" fill="#A11C22"/>
<path d="M48.4929 52.4579C44.7365 52.5311 42.9572 50.1296 44.0628 47.2008C44.4802 46.0952 45.2271 45.3045 46.4133 45.0555C47.7094 44.7846 48.6833 44.0964 49.4814 43.0347C50.5871 41.563 52.0223 41.1823 53.6552 42.0536C54.5266 42.5222 55.3687 43.2031 55.9764 43.9792C57.4409 45.8536 57.1993 48.0355 55.4273 49.6317C53.3111 51.528 50.7189 52.2456 48.4929 52.4579ZM48.0096 49.844C49.7524 49.7122 51.4731 49.207 53.0255 48.1966C54.673 47.1203 54.6511 45.7877 53.0255 44.6675C52.3811 44.2282 51.8539 44.133 51.334 44.9018C50.4334 46.2343 49.13 47.0544 47.5849 47.4717C46.6257 47.728 46.2889 48.182 46.4207 48.9947C46.5671 49.8953 47.2774 49.8074 48.017 49.8367L48.0096 49.844Z" fill="#A11C22"/>
</g>
</g>
</svg>
