<svg width="80" height="90" viewBox="0 0 80 90" fill="none" xmlns="http://www.w3.org/2000/svg">
<mask id="mask0_1560_2074" style="mask-type:luminance" maskUnits="userSpaceOnUse" x="1" y="0" width="78" height="90">
<path d="M79 0H1V90H79V0Z" fill="white"/>
</mask>
<g mask="url(#mask0_1560_2074)">
<path d="M37.4978 89.9343C35.8462 89.6563 34.1547 89.5053 32.535 89.0764C19.5136 85.6683 11.3992 77.4221 8.17572 64.4173C7.91242 63.3527 7.83263 62.2485 7.62518 61.168C7.57731 60.9376 7.3938 60.6437 7.19433 60.5563C3.26079 58.888 1.17034 55.6388 1.29002 51.3409C1.37779 48.4254 2.37514 45.907 4.65707 44.0004C5.1358 43.5952 5.69432 43.1742 6.27677 43.0153C7.29805 42.7452 7.48954 42.1732 7.46561 41.212C7.3938 38.6936 7.49752 36.1673 7.41773 33.6569C7.36986 32.1475 7.94433 30.9797 9.21296 30.3441C10.9603 29.4623 12.7954 28.7076 14.6545 28.0959C16.2662 27.5636 17.9737 27.3174 19.745 26.9202C19.745 25.085 19.745 23.2419 19.745 21.3909C19.745 19.7226 19.9923 18.1099 20.6865 16.5767C21.9711 13.7723 24.0934 11.8736 27.0775 10.7376C25.9046 8.88663 25.5615 6.93233 26.3354 4.86681C26.8062 3.60367 27.644 2.61858 28.777 1.89565C31.0429 0.441842 34.035 0.664282 36.0855 2.41997C38.4233 4.42988 38.7664 7.04355 37.1627 10.6899C37.9526 11.111 38.7345 11.54 39.5324 11.9293C39.676 12.0008 39.9233 11.9849 40.0749 11.9134C40.8489 11.532 41.6068 11.111 42.4366 10.6741C41.3914 9.00579 40.9925 7.19449 41.6228 5.2402C42.0616 3.89761 42.8675 2.82513 44.0324 2.0307C46.3622 0.441842 49.5378 0.672227 51.6122 2.57091C53.8942 4.65232 54.2213 7.52815 52.5138 10.6979C52.6814 10.7853 52.841 10.8886 53.0085 10.9601C57.3969 12.8826 59.6309 16.2589 59.7985 20.9858C59.8703 22.948 59.8065 24.9182 59.8065 26.9043C61.5458 27.2935 63.2613 27.5795 64.9129 28.088C66.5964 28.6043 68.256 29.2478 69.8438 30.0105C71.4316 30.7731 72.2135 32.0601 72.1337 33.9429C72.022 36.5725 72.0938 39.21 72.1337 41.8475C72.1337 42.1335 72.3651 42.5863 72.5965 42.6816C75.8598 43.9448 77.5273 46.4711 78.1098 49.7441C78.6683 52.8901 77.9821 55.7897 75.8598 58.2684C74.9741 59.3011 73.897 60.0876 72.5725 60.461C72.0379 60.6119 71.9262 60.9138 71.8784 61.3905C70.498 74.9752 59.8623 86.5977 46.3941 89.2511C44.942 89.5371 43.4739 89.7199 42.0217 89.9502H37.4818L37.4978 89.9343ZM10.5614 36.9141C10.5454 37.1921 10.5215 37.3907 10.5215 37.5893C10.5215 44.2546 10.4896 50.9119 10.5374 57.5772C10.5534 59.2773 10.705 60.9933 10.9683 62.6774C13.5056 78.5184 29.3594 89.4895 45.1734 86.3674C59.2719 83.5868 69.006 71.8293 69.0698 57.4819C69.0938 50.904 69.0698 44.3341 69.0698 37.7562C69.0698 37.4861 69.0379 37.216 69.014 36.8823C68.2959 37.1604 67.6895 37.4225 67.0592 37.637C61.9528 39.3848 56.6309 39.9329 51.3011 40.3699C44.7106 40.9101 38.1121 41.0213 31.5137 40.5843C24.4365 40.1077 17.3673 39.5913 10.5614 36.922V36.9141ZM38.2797 31.5993H56.6628C56.6868 31.4563 56.7187 31.369 56.7187 31.2816C56.7187 27.7543 56.7586 24.2191 56.7107 20.6918C56.6628 17.1407 54.1176 14.0901 50.6069 13.4546C49.2186 13.2083 47.7744 13.2718 46.3542 13.2639C41.5271 13.2639 38.2637 16.5131 38.2478 21.3274C38.2398 24.4495 38.2478 27.5795 38.2478 30.7016C38.2478 30.9876 38.2717 31.2657 38.2877 31.5993H38.2797ZM37.1946 14.098C36.6919 13.9233 36.0217 13.5499 35.3275 13.4784C33.8275 13.3275 32.3195 13.2718 30.8115 13.2718C26.144 13.2718 22.8647 16.5687 22.8487 21.2161C22.8407 24.4018 22.8487 27.5875 22.8487 30.7731C22.8487 31.0512 22.8806 31.3292 22.8966 31.5835H35.1919C35.1919 28.1992 35.1839 24.9023 35.1919 21.6054C35.1919 20.7713 35.136 19.8894 35.3674 19.103C35.8621 17.4664 36.5323 15.8776 37.1866 14.098H37.1946ZM10.3699 33.4663C11.455 33.9509 12.3885 34.4752 13.3859 34.793C17.8061 36.215 22.3939 36.8426 26.9977 37.2319C37.785 38.1454 48.5564 38.0978 59.2639 36.358C62.0006 35.9131 64.6655 35.0392 67.3384 34.2845C67.9608 34.1097 68.5033 33.6331 69.3012 33.1564C66.2374 31.2657 63.0618 30.7414 59.8224 30.074C59.8224 31.0512 59.8224 31.8536 59.8224 32.6639C59.8224 34.2051 59.3277 34.7056 57.7958 34.7056C45.7798 34.7056 33.7717 34.7056 21.7556 34.7056C20.2556 34.7056 19.7609 34.213 19.745 32.7354C19.737 31.8774 19.745 31.0194 19.745 30.1614C16.2981 30.4474 11.7103 31.9966 10.3619 33.4663H10.3699ZM32.0483 10.1577C33.7717 10.1736 35.1759 8.79924 35.1759 7.09916C35.1759 5.43086 33.8036 4.06444 32.128 4.05649C30.4046 4.04061 29.0004 5.41497 29.0083 7.11505C29.0083 8.78335 30.3807 10.1497 32.0562 10.1577H32.0483ZM47.4952 10.1577C49.1787 10.1577 50.5511 8.80719 50.575 7.14683C50.5989 5.44675 49.2027 4.05649 47.4872 4.05649C45.7558 4.05649 44.4074 5.42291 44.4313 7.15477C44.4553 8.84691 45.7957 10.1656 47.4952 10.1577ZM72.2055 45.8594V57.2992C74.6151 55.7103 75.405 53.5177 75.2135 50.8802C75.0619 48.759 74.0885 47.1225 72.2055 45.8594ZM7.41773 45.8355C4.9842 47.4562 4.16239 49.6409 4.36186 52.2704C4.52143 54.3995 5.47889 56.0757 7.41773 57.2992V45.8355Z" fill="#A11C22"/>
<path d="M25.9519 59.2451C23.9014 59.261 22.2497 58.411 20.9013 56.9254C19.6726 55.5669 18.8747 53.9701 18.3481 52.2383C18.0369 51.2293 18.4598 50.3713 19.3136 50.133C20.2152 49.8788 20.8614 50.3555 21.3003 51.3405C21.8269 52.5163 22.3455 53.7477 23.1354 54.7486C24.6992 56.7188 27.0769 56.7506 28.6487 54.7963C29.4945 53.7477 29.9972 52.4051 30.5956 51.1658C30.9386 50.4587 31.4014 50.0456 32.1993 50.1012C32.9254 50.1489 33.3802 50.5699 33.5557 51.2452C33.6195 51.4835 33.6115 51.7695 33.5477 52.0079C32.9573 54.1052 31.9918 55.988 30.3722 57.4974C29.1275 58.6493 27.6594 59.2451 25.9519 59.2531V59.2451Z" fill="#A11C22"/>
<path d="M53.7572 59.237C51.6508 59.2529 50.0151 58.4187 48.6827 56.9649C47.422 55.5985 46.6082 53.9779 46.0816 52.2142C45.7864 51.245 46.1853 50.4109 46.9832 50.1408C47.8928 49.8389 48.6029 50.3235 49.0497 51.3483C49.5603 52.5002 50.055 53.7078 50.8289 54.6849C52.4486 56.7425 54.9221 56.7266 56.5258 54.6452C57.2678 53.6839 57.7625 52.5002 58.2572 51.3721C58.712 50.3314 59.3822 49.8468 60.3077 50.1328C61.1535 50.395 61.5524 51.245 61.2253 52.2619C60.603 54.2162 59.6854 56.0037 58.1614 57.4336C56.9008 58.6094 55.4088 59.237 53.7651 59.237H53.7572Z" fill="#A11C22"/>
<path d="M38.8782 64.7903C40.067 64.5043 41.1521 64.2342 42.2372 63.972C43.3463 63.7019 44.1202 64.0753 44.3835 64.9968C44.6309 65.8866 44.1043 66.6493 43.0032 66.9353C41.1202 67.4199 39.2372 67.8965 37.3463 68.3414C35.8542 68.6909 34.9127 67.7773 35.2718 66.3077C36.2452 62.3514 37.2425 58.4031 38.2479 54.4548C38.5112 53.4379 39.309 52.9136 40.1628 53.1281C41.0803 53.3664 41.4952 54.1767 41.2239 55.2571C40.4819 58.2283 39.7319 61.1995 38.9899 64.1706C38.95 64.3295 38.934 64.4884 38.8782 64.7903Z" fill="#A11C22"/>
</g>
</svg>
