<svg width="70" height="70" viewBox="0 0 70 70" fill="none" xmlns="http://www.w3.org/2000/svg">
<circle cx="35" cy="35" r="35" fill="black"/>
<path d="M46.725 37.3621H36.6625V47.4246C36.6625 48.5315 35.7569 49.4371 34.65 49.4371C33.5431 49.4371 32.6375 48.5315 32.6375 47.4246V37.3621H22.575C21.4681 37.3621 20.5625 36.4565 20.5625 35.3496C20.5625 34.2427 21.4681 33.3371 22.575 33.3371H32.6375V23.2746C32.6375 22.1677 33.5431 21.2621 34.65 21.2621C35.7569 21.2621 36.6625 22.1677 36.6625 23.2746V33.3371H46.725C47.8319 33.3371 48.7375 34.2427 48.7375 35.3496C48.7375 36.4565 47.8319 37.3621 46.725 37.3621Z" fill="white"/>
</svg>
