<svg width="41" height="34" viewBox="0 0 41 34" fill="none" xmlns="http://www.w3.org/2000/svg">
<path d="M19.8577 12.6825C17.0155 10.0556 18.5759 7.75504 19.8808 6.79779C19.9885 6.71878 20.1369 6.72494 20.2419 6.80741C23.008 8.97951 21.5307 11.5117 20.2669 12.6863C20.1519 12.7932 19.973 12.7891 19.8577 12.6825Z" fill="white"/>
<path d="M23.8657 15.9522C21.8051 12.6844 23.9122 10.8632 25.4221 10.2739C25.5468 10.2253 25.6885 10.2693 25.7684 10.376C27.874 13.1849 25.7869 15.2511 24.26 16.061C24.121 16.1347 23.9493 16.0848 23.8657 15.9522Z" fill="white"/>
<path d="M16.6105 16.6357C18.6711 13.368 16.564 11.5468 15.054 10.9575C14.9294 10.9088 14.7877 10.9529 14.7077 11.0596C12.6022 13.8684 14.6893 15.9347 16.2162 16.7446C16.3551 16.8183 16.5269 16.7683 16.6105 16.6357Z" fill="white"/>
<path d="M28.6244 13.9207C27.4972 10.8724 29.533 9.70449 30.8989 9.45597C31.0306 9.432 31.1606 9.50291 31.2167 9.62363C32.4603 12.3015 30.4057 13.6727 28.9879 14.1039C28.8372 14.1498 28.6787 14.0676 28.6244 13.9207Z" fill="white"/>
<path d="M11.8518 14.6043C12.979 11.556 10.9432 10.3881 9.57727 10.1395C9.44557 10.1156 9.31559 10.1865 9.25952 10.3072C8.0159 12.985 10.0705 14.3563 11.4883 14.7875C11.6389 14.8333 11.7975 14.7511 11.8518 14.6043Z" fill="white"/>
<path d="M28.6244 13.9207C27.4972 10.8724 29.533 9.70449 30.8989 9.45597C31.0306 9.432 31.1606 9.50291 31.2167 9.62363C32.4603 12.3015 30.4057 13.6727 28.9879 14.1039C28.8372 14.1498 28.6787 14.0676 28.6244 13.9207Z" fill="white"/>
<path d="M11.8518 14.6043C12.979 11.556 10.9432 10.3881 9.57727 10.1395C9.44557 10.1156 9.31559 10.1865 9.25952 10.3072C8.0159 12.985 10.0705 14.3563 11.4883 14.7875C11.6389 14.8333 11.7975 14.7511 11.8518 14.6043Z" fill="white"/>
<path d="M27.1336 10.7057C25.1219 8.14531 26.7007 6.41555 27.9248 5.76442C28.0428 5.70164 28.1884 5.72971 28.279 5.82765C30.2874 7.99998 28.7532 9.92908 27.536 10.7699C27.4067 10.8592 27.2305 10.829 27.1336 10.7057Z" fill="white"/>
<path d="M13.3426 11.3893C15.3543 8.82887 13.7755 7.09911 12.5514 6.44798C12.4334 6.3852 12.2878 6.41327 12.1972 6.51121C10.1888 8.68354 11.7229 10.6126 12.9401 11.4534C13.0695 11.5428 13.2457 11.5126 13.3426 11.3893Z" fill="white"/>
<path d="M23.4556 8.65894C26.1397 6.80339 25.1465 4.68756 24.171 3.70628C24.0769 3.61166 23.9295 3.59574 23.8138 3.66273C21.2483 5.1485 22.1395 7.44165 23.052 8.60213C23.1489 8.72543 23.3263 8.74833 23.4556 8.65894Z" fill="white"/>
<path d="M16.9716 8.74162C19.0894 6.26706 17.5849 4.4732 16.3894 3.77178C16.2741 3.70415 16.1274 3.72614 16.0328 3.82023C13.9346 5.9072 15.386 7.89836 16.5667 8.78901C16.6922 8.88365 16.8695 8.86082 16.9716 8.74162Z" fill="white"/>
<path d="M20.491 5.00911C22.6089 2.53456 21.1044 0.740698 19.9088 0.0392755C19.7935 -0.0283575 19.6469 -0.00636422 19.5523 0.0877235C17.454 2.17469 18.9055 4.16585 20.0862 5.05651C20.2117 5.15114 20.389 5.12832 20.491 5.00911Z" fill="white"/>
<path d="M32.5531 11.912C33.3593 8.76492 35.7035 8.9444 36.9717 9.5062C37.094 9.56037 37.1608 9.69182 37.1383 9.82287C36.6391 12.7297 34.1635 12.7073 32.7485 12.2671C32.5982 12.2203 32.5142 12.0636 32.5531 11.912Z" fill="white"/>
<path d="M7.92311 12.5955C7.11686 9.44848 4.77264 9.62796 3.50447 10.1898C3.38219 10.2439 3.31536 10.3754 3.33787 10.5064C3.83713 13.4133 6.31269 13.3909 7.72768 12.9507C7.87803 12.9039 7.96195 12.7471 7.92311 12.5955Z" fill="white"/>
<path d="M34.7412 17.7938C35.9105 14.7612 38.2178 15.21 39.4116 15.9144C39.5267 15.9823 39.5777 16.1205 39.54 16.2481C38.7037 19.0776 36.2476 18.7697 34.8937 18.1691C34.7499 18.1053 34.6849 17.9399 34.7412 17.7938Z" fill="white"/>
<path d="M5.73499 18.4774C4.56572 15.4447 2.25842 15.8936 1.06462 16.5979C0.949512 16.6658 0.898525 16.8041 0.936226 16.9317C1.77246 19.7612 4.22862 19.4532 5.58247 18.8527C5.72632 18.7889 5.79131 18.6235 5.73499 18.4774Z" fill="white"/>
<path d="M35.3776 22.7292C37.4494 20.2165 39.4969 21.3639 40.4065 22.4057C40.4942 22.5062 40.4987 22.6534 40.4225 22.7627C38.7312 25.1867 36.4977 24.1264 35.4033 23.1331C35.287 23.0275 35.2778 22.8502 35.3776 22.7292Z" fill="white"/>
<path d="M5.09861 23.4127C3.02683 20.9 0.979323 22.0475 0.069718 23.0893C-0.0179885 23.1898 -0.0225183 23.3369 0.053729 23.4462C1.74498 25.8702 3.97847 24.81 5.07291 23.8166C5.1892 23.7111 5.19841 23.5338 5.09861 23.4127Z" fill="white"/>
<path d="M30.201 28.2718C33.2806 27.1779 34.44 29.2087 34.679 30.5668C34.7021 30.6978 34.6296 30.8263 34.5075 30.8809C31.8002 32.0934 30.4361 30.0423 30.0135 28.6311C29.9686 28.4812 30.0527 28.3245 30.201 28.2718Z" fill="white"/>
<path d="M10.2752 28.9553C7.19564 27.8615 6.03619 29.8922 5.79718 31.2504C5.77413 31.3814 5.84662 31.5098 5.96868 31.5645C8.67604 32.777 10.0401 30.7258 10.4627 29.3147C10.5076 29.1647 10.4235 29.008 10.2752 28.9553Z" fill="white"/>
<path d="M23.3682 19.9099C23.9106 16.0924 26.7038 16.0457 28.2413 16.56C28.3682 16.6024 28.4481 16.7268 28.4401 16.8595C28.2297 20.3546 25.2928 20.6016 23.5993 20.2452C23.4452 20.2128 23.3462 20.0648 23.3682 19.9099Z" fill="white"/>
<path d="M17.108 20.5935C16.5656 16.7759 13.7724 16.7293 12.2349 17.2435C12.108 17.286 12.0281 17.4103 12.0361 17.543C12.2465 21.0382 15.1834 21.2851 16.8769 20.9288C17.031 20.8963 17.13 20.7484 17.108 20.5935Z" fill="white"/>
<path d="M23.6409 29.8299C24.772 26.1418 27.5389 26.525 28.9777 27.2694C29.0964 27.3308 29.156 27.466 29.1274 27.5958C28.3745 31.0165 25.4345 30.8091 23.817 30.1967C23.6698 30.141 23.595 29.9796 23.6409 29.8299Z" fill="white"/>
<path d="M16.8353 30.5135C15.7041 26.8253 12.9373 27.2086 11.4985 27.953C11.3798 28.0144 11.3202 28.1495 11.3488 28.2794C12.1017 31.7001 15.0417 31.4926 16.6592 30.8803C16.8064 30.8246 16.8812 30.6631 16.8353 30.5135Z" fill="white"/>
<path d="M29.5716 25.8347C31.6608 22.5848 34.2216 23.6933 35.4056 24.7946C35.5033 24.8855 35.524 25.0316 35.4612 25.149C33.8089 28.2423 31.0336 27.257 29.6418 26.235C29.5151 26.142 29.4869 25.9665 29.5716 25.8347Z" fill="white"/>
<path d="M10.9046 26.5182C8.81542 23.2684 6.25456 24.3768 5.07062 25.4782C4.97291 25.5691 4.95221 25.7151 5.01495 25.8326C6.66728 28.9259 9.44256 27.9405 10.8344 26.9185C10.9611 26.8255 10.9893 26.6501 10.9046 26.5182Z" fill="white"/>
<path d="M23.3555 24.9717C23.9298 21.1588 26.7234 21.1352 28.2565 21.6621C28.3831 21.7056 28.4619 21.8306 28.4528 21.9632C28.2131 25.4565 25.2743 25.6792 23.5838 25.3089C23.43 25.2752 23.3322 25.1264 23.3555 24.9717Z" fill="white"/>
<path d="M17.1207 25.6553C16.5464 21.8423 13.7528 21.8187 12.2196 22.3457C12.0931 22.3892 12.0143 22.5142 12.0234 22.6468C12.263 26.1401 15.2019 26.3628 16.8924 25.9925C17.0462 25.9588 17.144 25.81 17.1207 25.6553Z" fill="white"/>
<path d="M29.6072 17.051C30.1496 13.2334 32.9429 13.1868 34.4804 13.701C34.6073 13.7435 34.6871 13.8678 34.6792 14.0005C34.4688 17.4957 31.5319 17.7426 29.8384 17.3863C29.6842 17.3538 29.5852 17.2059 29.6072 17.051Z" fill="white"/>
<path d="M10.869 17.7345C10.3266 13.917 7.53334 13.8703 5.99581 14.3846C5.86891 14.427 5.78904 14.5514 5.79703 14.6841C6.00743 18.1792 8.94431 18.4262 10.6378 18.0698C10.792 18.0374 10.891 17.8894 10.869 17.7345Z" fill="white"/>
<path d="M29.5674 21.1076C31.4914 17.7588 34.1046 18.7396 35.3421 19.7813C35.4443 19.8672 35.4722 20.0121 35.4154 20.1324C33.9199 23.3034 31.0987 22.4561 29.6575 21.504C29.5263 21.4173 29.4893 21.2435 29.5674 21.1076Z" fill="white"/>
<path d="M10.9088 21.7912C8.98478 18.4424 6.37164 19.4232 5.13407 20.4648C5.03194 20.5508 5.00396 20.6956 5.06075 20.816C6.55633 23.9869 9.37746 23.1396 10.8187 22.1875C10.9499 22.1009 10.9869 21.9271 10.9088 21.7912Z" fill="white"/>
<path d="M19.2379 19.1508C17.3635 15.7744 19.5693 14.0723 21.1099 13.5673C21.2371 13.5256 21.3761 13.5774 21.45 13.6883C23.3949 16.6091 21.1954 18.5569 19.6255 19.2813C19.4826 19.3472 19.314 19.2878 19.2379 19.1508Z" fill="white"/>
<path d="M18.998 33.8426C17.1236 30.4662 19.3293 28.7641 20.87 28.259C20.9971 28.2174 21.1362 28.2692 21.21 28.3801C23.155 31.3008 20.9555 33.2487 19.3855 33.973C19.2427 34.039 19.074 33.9796 18.998 33.8426Z" fill="white"/>
<path d="M20.2577 26.815C22.9546 24.0412 21.2727 21.8266 19.9182 20.9399C19.8064 20.8667 19.6585 20.8808 19.5581 20.9687C16.9128 23.2843 18.5242 25.7345 19.8493 26.8405C19.9699 26.9412 20.1483 26.9276 20.2577 26.815Z" fill="white"/>
</svg>
