<svg width="145" height="242" viewBox="0 0 145 242" fill="none" xmlns="http://www.w3.org/2000/svg">
<g clip-path="url(#clip0_161_5878)">
<path d="M81.0295 26.5253V0H63.212V26.5254L39.0987 13.6858L32.7321 31.5716L63.212 47.8013V65.3364L29.2541 47.2548L22.8875 65.1406L63.212 86.6122V104.998L21.7524 82.9216L15.3858 100.807L63.212 126.273V144.891L12.5024 117.89L6.13578 135.775L63.212 166.167V183.125L6.3666 152.857L0 170.743L63.212 204.401V218.16L6.3666 187.891L0 205.777L63.212 239.435V258.023L6.3666 227.754L0 245.64L63.212 279.299V293.34L6.3666 263.072L0 280.958L63.212 314.616V330.056L6.3666 299.788L0 317.674L63.212 351.332V369.57L6.3666 339.301L0 357.187L63.212 390.846V411.182L6.3666 380.913L0 398.799L63.212 432.457V447.548L6.3666 417.279L0 435.165L63.212 468.824V488.227L12.0574 460.989L5.69078 478.875L63.212 509.503V523.552L20.8034 500.97L14.4368 518.856L63.212 544.828V561.304L35.9322 546.779L29.5656 564.664L63.212 582.58L63.2119 705.284H81.0294V582.58L114.676 564.664L108.309 546.779L81.0294 561.304V544.828L129.804 518.856L123.438 500.97L81.0294 523.552V509.503L138.55 478.875L132.184 460.989L81.0294 488.227V468.824L144.241 435.165L137.875 417.279L81.0294 447.548V432.457L144.241 398.799L137.875 380.913L81.0295 411.181V390.845L144.241 357.187L137.875 339.301L81.0295 369.57V351.332L144.241 317.674L137.875 299.788L81.0295 330.056V314.616L144.241 280.958L137.875 263.072L81.0295 293.34V279.298L144.241 245.64L137.875 227.754L81.0295 258.022V239.435L144.241 205.777L137.875 187.891L81.0295 218.159V204.401L144.241 170.743L137.875 152.857L81.0295 183.125V166.167L138.105 135.775L131.739 117.889L81.0295 144.891V126.273L128.855 100.807L122.489 82.9215L81.0295 104.997V86.6121L121.354 65.1405L114.987 47.2547L81.0295 65.3363V47.8011L111.509 31.5715L105.143 13.6857L81.0295 26.5253Z" fill="black" fill-opacity="0.05"/>
</g>
<defs>
<clipPath id="clip0_161_5878">
<rect width="145" height="242" fill="white"/>
</clipPath>
</defs>
</svg>
