<svg width="358" height="177" viewBox="0 0 358 177" fill="none" xmlns="http://www.w3.org/2000/svg">
<path d="M179.151 163.921L189.953 0H168.35L179.151 163.921Z" fill="#F8ECDB"/>
<path d="M179.151 192.429L189.953 356.35H168.35L179.151 192.429Z" fill="#F8ECDB"/>
<path d="M179.151 192.429L168.35 356.35H189.953L179.151 192.429Z" fill="#F8ECDB"/>
<path d="M179.151 163.921L168.35 0H189.953L179.151 163.921Z" fill="#F8ECDB"/>
<path d="M193.405 178.175L357.326 188.976V167.374L193.405 178.175Z" fill="#F8ECDB"/>
<path d="M164.897 178.175L0.976562 188.976L0.976563 167.374L164.897 178.175Z" fill="#F8ECDB"/>
<path d="M164.897 178.175L0.976563 167.374L0.976562 188.976L164.897 178.175Z" fill="#F8ECDB"/>
<path d="M193.405 178.175L357.326 167.374V188.976L193.405 178.175Z" fill="#F8ECDB"/>
<path d="M169.072 168.096L60.8004 44.5485L45.5251 59.8238L169.072 168.096Z" fill="#F8ECDB"/>
<path d="M189.23 188.254L312.778 296.526L297.502 311.801L189.23 188.254Z" fill="#F8ECDB"/>
<path d="M189.23 188.254L297.502 311.801L312.778 296.526L189.23 188.254Z" fill="#F8ECDB"/>
<path d="M169.072 168.096L45.5251 59.8238L60.8004 44.5485L169.072 168.096Z" fill="#F8ECDB"/>
<path d="M189.23 168.096L312.778 59.8239L297.502 44.5486L189.23 168.096Z" fill="#F8ECDB"/>
<path d="M169.072 188.254L60.8004 311.801L45.5251 296.526L169.072 188.254Z" fill="#F8ECDB"/>
<path d="M169.072 188.254L45.5251 296.526L60.8004 311.801L169.072 188.254Z" fill="#F8ECDB"/>
<path d="M189.23 168.096L297.502 44.5486L312.778 59.8239L189.23 168.096Z" fill="#F8ECDB"/>
<path d="M182.841 164.406L235.7 8.86671L214.833 3.27556L182.841 164.406Z" fill="#F8ECDB"/>
<path d="M175.462 191.943L143.47 353.074L122.603 347.483L175.462 191.943Z" fill="#F8ECDB"/>
<path d="M175.462 191.943L122.603 347.483L143.47 353.074L175.462 191.943Z" fill="#F8ECDB"/>
<path d="M182.841 164.406L214.833 3.27556L235.7 8.86671L182.841 164.406Z" fill="#F8ECDB"/>
<path d="M192.92 181.864L348.459 234.723L354.051 213.857L192.92 181.864Z" fill="#F8ECDB"/>
<path d="M165.383 174.486L4.25215 142.493L9.8433 121.626L165.383 174.486Z" fill="#F8ECDB"/>
<path d="M165.383 174.486L9.8433 121.626L4.25215 142.493L165.383 174.486Z" fill="#F8ECDB"/>
<path d="M192.92 181.864L354.051 213.857L348.459 234.723L192.92 181.864Z" fill="#F8ECDB"/>
<path d="M172.024 165.83L99.4181 18.4703L80.7098 29.2716L172.024 165.83Z" fill="#F8ECDB"/>
<path d="M186.278 190.519L277.593 327.078L258.885 337.879L186.278 190.519Z" fill="#F8ECDB"/>
<path d="M186.278 190.519L258.885 337.879L277.593 327.078L186.278 190.519Z" fill="#F8ECDB"/>
<path d="M172.024 165.83L80.7098 29.2716L99.4181 18.4703L172.024 165.83Z" fill="#F8ECDB"/>
<path d="M191.496 171.048L338.856 98.4416L328.055 79.7332L191.496 171.048Z" fill="#F8ECDB"/>
<path d="M166.807 185.302L30.2481 276.616L19.4468 257.908L166.807 185.302Z" fill="#F8ECDB"/>
<path d="M166.807 185.302L19.4468 257.908L30.2481 276.616L166.807 185.302Z" fill="#F8ECDB"/>
<path d="M191.496 171.048L328.055 79.7332L338.856 98.4416L191.496 171.048Z" fill="#F8ECDB"/>
<path d="M186.278 165.83L277.593 29.2715L258.885 18.4702L186.278 165.83Z" fill="#F8ECDB"/>
<path d="M172.024 190.519L99.4181 337.879L80.7098 327.078L172.024 190.519Z" fill="#F8ECDB"/>
<path d="M172.024 190.519L80.7098 327.078L99.4181 337.879L172.024 190.519Z" fill="#F8ECDB"/>
<path d="M186.278 165.83L258.885 18.4702L277.593 29.2715L186.278 165.83Z" fill="#F8ECDB"/>
<path d="M191.496 185.302L328.055 276.616L338.856 257.908L191.496 185.302Z" fill="#F8ECDB"/>
<path d="M166.807 171.048L19.4468 98.4416L30.2481 79.7332L166.807 171.048Z" fill="#F8ECDB"/>
<path d="M166.807 171.048L30.2481 79.7332L19.4468 98.4416L166.807 171.048Z" fill="#F8ECDB"/>
<path d="M191.496 185.302L338.856 257.908L328.055 276.616L191.496 185.302Z" fill="#F8ECDB"/>
<path d="M175.462 164.407L143.47 3.27565L122.603 8.86679L175.462 164.407Z" fill="#F8ECDB"/>
<path d="M182.841 191.943L235.7 347.483L214.833 353.074L182.841 191.943Z" fill="#F8ECDB"/>
<path d="M182.841 191.943L214.833 353.074L235.7 347.483L182.841 191.943Z" fill="#F8ECDB"/>
<path d="M175.462 164.407L122.603 8.86679L143.47 3.27565L175.462 164.407Z" fill="#F8ECDB"/>
<path d="M192.92 174.486L354.05 142.493L348.459 121.626L192.92 174.486Z" fill="#F8ECDB"/>
<path d="M165.383 181.864L9.84331 234.723L4.25216 213.857L165.383 181.864Z" fill="#F8ECDB"/>
<path d="M165.383 181.864L4.25216 213.857L9.84331 234.723L165.383 181.864Z" fill="#F8ECDB"/>
<path d="M192.92 174.486L348.459 121.626L354.05 142.493L192.92 174.486Z" fill="#F8ECDB"/>
</svg>
