<svg width="134" height="40" viewBox="0 0 134 40" fill="none" xmlns="http://www.w3.org/2000/svg">
<path d="M8.06958 8.69554C9.00871 8.69554 9.84349 8.81728 10.5913 9.00858V7.99989C10.5913 7.19989 11.2348 6.55641 12.0348 6.55641H35.1826C35.9826 6.55641 36.6261 7.19989 36.6261 7.99989V9.11293H41.1478V7.09554C41.1478 4.29554 38.887 2.03467 36.087 2.03467H11.1304C8.33045 2.03467 6.06958 4.29554 6.06958 7.09554V8.86945C6.69567 8.74771 7.37393 8.69554 8.06958 8.69554Z" fill="url(#paint0_linear_293_234)"/>
<path d="M36.6261 27.5825V33.4608H12.9913C11.6696 33.4608 10.5913 32.3825 10.5913 31.0608V29.8086C9.66958 30.0869 8.64349 30.2434 7.53045 30.2434C7.0261 30.2434 6.53915 30.2086 6.06958 30.139V32.0173C6.06958 35.3043 8.74784 37.9825 12.0348 37.9825H41.1478V30.1912C38.9044 29.9477 37.5131 28.9043 36.6261 27.5825Z" fill="url(#paint1_linear_293_234)"/>
<path d="M1.20001 25.4258L3.37393 23.3215C3.84349 22.8693 4.55653 22.7998 5.09566 23.165C5.84349 23.6519 6.76523 23.9824 7.96523 23.9824C8.99132 23.9824 9.47827 23.6519 9.47827 23.0432C9.47827 21.1128 1.75653 21.9476 1.75653 15.8085C1.75653 12.5563 4.59132 10.5911 8.26088 10.5911C11.4783 10.5911 13.3044 12.1389 14.3131 13.478L10.8348 16.2085C10.3131 15.6867 9.35653 14.8867 8.03479 14.8867C7.26958 14.8867 6.8174 15.1998 6.8174 15.7215C6.8174 17.8432 14.6087 16.6258 14.6087 22.7302C14.6087 26.1737 11.5826 28.2954 7.72175 28.2954C4.48697 28.3302 2.20871 26.7824 1.20001 25.4258Z" fill="white"/>
<path d="M28.5913 11.026H33.6174V31.8434H32.2261C30.0348 31.8434 28.2435 30.0695 28.2435 27.8608V26.626C27.8957 27.0434 26.3131 28.3304 23.7391 28.3304C18.8522 28.3304 15.7565 24.6956 15.7565 19.4434C15.7391 14.2608 19.1652 10.6086 24.0174 10.6086C26.487 10.6086 28.1044 11.7913 28.5913 12.3478V11.026ZM24.7478 15.3043C22.5913 15.3043 21.1131 16.9043 21.1131 19.426C21.1131 21.8956 22.5565 23.5999 24.7478 23.5999C26.8696 23.5999 28.3826 22.0869 28.3826 19.426C28.3826 17.1652 27.0783 15.3043 24.7478 15.3043Z" fill="white"/>
<path d="M41.9304 21.0954C41.9304 22.6781 42.8696 23.5128 44.1565 23.5128C45.6348 23.5128 46.4696 22.452 46.4696 21.0954V11.0259H51.8435V28.3302H46.5913V26.1737C45.9478 27.165 44.4696 28.3302 42.3478 28.3302C37.0783 28.3302 36.5565 23.8259 36.5565 20.3824V11.0259H40.5391C41.3043 11.0259 41.9304 11.652 41.9304 12.4172V21.0954Z" fill="white"/>
<path d="M60.4696 17.0608C61.9478 17.0608 63.1131 17.4086 63.7217 17.6695V17.0608C63.7217 16.0347 62.887 15.2347 61.1478 15.2347C60.0696 15.2347 59.0087 15.4608 58 15.826C57.3565 16.0695 56.6261 15.8086 56.2957 15.1999L54.9044 12.6956C56.7131 11.513 58.9913 10.6086 61.7913 10.6086C67.6174 10.6086 69.0957 13.5999 69.0957 17.4608V28.3304H65.687C64.887 28.3304 64.1913 27.7739 64.0174 26.9739C63.1478 27.8434 61.9304 28.3304 60.1913 28.3304C56.8696 28.3304 53.9131 26.3304 53.9131 22.6608C53.8957 19.2869 56.4696 17.0608 60.4696 17.0608ZM61.5652 24.2086C62.8522 24.2086 63.8087 23.5999 63.8087 22.4695C63.8087 21.3043 62.8174 20.6608 61.5304 20.6608C60.2435 20.6608 59.287 21.3739 59.287 22.4695C59.2696 23.5999 60.3131 24.2086 61.5652 24.2086Z" fill="white"/>
<path d="M77.3565 28.3302H71.9826V12.4172C71.9826 11.652 72.6087 11.0259 73.3739 11.0259H77.3565V28.3302Z" fill="white"/>
<path d="M90.1566 15.9998H89.287C86.6783 15.9998 85.8087 17.8954 85.8087 20.4345V28.3128H80.4348V11.0258H84.2783C85.0435 11.0258 85.6696 11.6519 85.6696 12.4172V13.2693C86.4696 11.6345 88.0522 10.5911 90.1392 10.5911L90.1566 15.9998Z" fill="white"/>
<path d="M104.678 24.0695L105.565 26.8173C104.435 27.5826 102.73 28.3304 100.609 28.3304C95.2348 28.3304 91.4435 24.6608 91.4435 19.4782C91.4435 14.2956 95.3739 10.6086 100.591 10.6086C102.783 10.6086 104.417 11.3217 105.617 12.1565L104.174 16.6956C103.235 15.9304 102.052 15.4434 100.8 15.4434C98.2609 15.4434 96.8348 17.2173 96.8348 19.4608C96.8348 21.9304 98.5044 23.6173 100.991 23.6173C101.635 23.6173 102.278 23.4608 102.835 23.2347C103.565 22.8869 104.435 23.2869 104.678 24.0695Z" fill="white"/>
<path d="M109.113 4.64331H113.096V27.8955H107.722V6.03461C107.722 5.2694 108.348 4.64331 109.113 4.64331Z" fill="white"/>
<path d="M120.852 20.8695C120.974 22.3826 122.435 23.6695 124.417 23.6695C125.67 23.6695 126.609 23.1652 127.217 22.6608C127.722 22.2434 128.435 22.226 128.957 22.626L131.496 24.5912C131.009 25.5826 128.696 28.3304 124.313 28.3304C118.748 28.3304 115.339 24.5043 115.339 19.513C115.339 14.5565 118.678 10.6086 123.635 10.6086C129.009 10.6086 131.93 14.0521 131.93 19.8086C131.93 20.1217 131.93 20.4869 131.896 20.8695H120.852ZM121.009 17.4608H126.47C126.4 16.1043 125.409 14.9565 123.739 14.9565C121.983 14.9391 121.148 16.2608 121.009 17.4608Z" fill="white"/>
<path d="M74.6609 10.0172C76.1401 10.0172 77.3392 8.81807 77.3392 7.33891C77.3392 5.85974 76.1401 4.66064 74.6609 4.66064C73.1817 4.66064 71.9826 5.85974 71.9826 7.33891C71.9826 8.81807 73.1817 10.0172 74.6609 10.0172Z" fill="white"/>
<defs>
<linearGradient id="paint0_linear_293_234" x1="6.07108" y1="5.56514" x2="41.1546" y2="5.56514" gradientUnits="userSpaceOnUse">
<stop stop-color="#2075BC"/>
<stop offset="0.9833" stop-color="#2DB674"/>
</linearGradient>
<linearGradient id="paint1_linear_293_234" x1="6.07108" y1="32.7801" x2="41.1546" y2="32.7801" gradientUnits="userSpaceOnUse">
<stop stop-color="#FFDE11"/>
<stop offset="0.9833" stop-color="#F15752"/>
</linearGradient>
</defs>
</svg>
